<svg width="32" height="32" viewBox="0 0 32 32" fill="none" xmlns="http://www.w3.org/2000/svg">
<path d="M28.6679 24.0002L19.8108 16.0002M12.1918 16.0002L3.33468 24.0002M2.66797 9.3335L13.5545 16.9541C14.4361 17.5712 14.8769 17.8797 15.3563 17.9992C15.7798 18.1048 16.2228 18.1048 16.6463 17.9992C17.1257 17.8797 17.5665 17.5712 18.4481 16.9541L29.3346 9.3335M9.06797 26.6668H22.9346C25.1748 26.6668 26.2949 26.6668 27.1506 26.2309C27.9032 25.8474 28.5152 25.2354 28.8987 24.4828C29.3346 23.6271 29.3346 22.507 29.3346 20.2668V11.7335C29.3346 9.49329 29.3346 8.37318 28.8987 7.51753C28.5152 6.76489 27.9032 6.15296 27.1506 5.76947C26.2949 5.3335 25.1748 5.3335 22.9346 5.3335H9.06797C6.82776 5.3335 5.70765 5.3335 4.85201 5.76947C4.09936 6.15296 3.48744 6.76489 3.10394 7.51753C2.66797 8.37318 2.66797 9.49329 2.66797 11.7335V20.2668C2.66797 22.507 2.66797 23.6271 3.10394 24.4828C3.48744 25.2354 4.09936 25.8474 4.85201 26.2309C5.70765 26.6668 6.82776 26.6668 9.06797 26.6668Z" stroke="#2DCDFF" stroke-width="2" stroke-linecap="round" stroke-linejoin="round"/>
</svg>
