<svg width="32" height="32" viewBox="0 0 32 32" fill="none" xmlns="http://www.w3.org/2000/svg">
<path d="M29.3346 16.0003C29.3346 23.3641 23.3651 29.3337 16.0013 29.3337M29.3346 16.0003C29.3346 8.63653 23.3651 2.66699 16.0013 2.66699M29.3346 16.0003H26.668M16.0013 29.3337C8.6375 29.3337 2.66797 23.3641 2.66797 16.0003M16.0013 29.3337V26.667M2.66797 16.0003C2.66797 8.63653 8.6375 2.66699 16.0013 2.66699M2.66797 16.0003H5.33464M16.0013 2.66699V5.33366M25.4294 25.4284L23.5438 23.5428M8.45883 8.45785L6.57321 6.57223M23.5438 8.45785L25.4294 6.57223M6.57321 25.4284L8.45883 23.5428M10.668 16.0003L14.0013 14.0003L16.0013 10.667L18.0013 14.0003L21.3346 16.0003L18.0013 18.0003L16.0013 21.3337L14.0013 18.0003L10.668 16.0003Z" stroke="#2DCDFF" stroke-width="2" stroke-linecap="round" stroke-linejoin="round"/>
</svg>
