<svg width="64" height="64" viewBox="0 0 64 64" fill="none" xmlns="http://www.w3.org/2000/svg">
<path d="M36.0625 15.1875C36.0625 15.5208 35.9375 15.8229 35.6875 16.0938C35.4375 16.3646 35.125 16.5 34.75 16.5H12C11.625 16.5 11.3021 16.3646 11.0312 16.0938C10.7604 15.8229 10.625 15.5208 10.625 15.1875V7.5625C10.625 7.1875 10.7604 6.875 11.0312 6.625C11.3021 6.375 11.625 6.25 12 6.25H34.75C35.125 6.25 35.4375 6.375 35.6875 6.625C35.9375 6.875 36.0625 7.1875 36.0625 7.5625V15.1875ZM33.375 13.8125V8.9375H13.3125V13.8125H33.375ZM30.3125 22.25C32.2292 24.1667 33.1875 26.4792 33.1875 29.1875C33.1875 31.8958 32.2292 34.2083 30.3125 36.125C29.3542 37.0833 28.2708 37.8021 27.0625 38.2812C25.8542 38.7604 24.625 39 23.375 39C22.125 39 20.8958 38.7604 19.6875 38.2812C18.4792 37.8021 17.3958 37.0833 16.4375 36.125C14.5208 34.2083 13.5625 31.8958 13.5625 29.1875C13.5625 26.4792 14.5208 24.1667 16.4375 22.25C18.3542 20.3333 20.6667 19.375 23.375 19.375C26.0833 19.375 28.3958 20.3333 30.3125 22.25ZM28.375 24.125C27.7083 23.4583 26.9375 22.9479 26.0625 22.5938C25.1875 22.2396 24.2917 22.0625 23.375 22.0625C22.6667 22.0625 21.9688 22.1667 21.2812 22.375C20.5938 22.5833 19.9583 22.8958 19.375 23.3125L29.25 33.1875C30.2083 31.8125 30.6146 30.2708 30.4688 28.5625C30.3229 26.8542 29.625 25.375 28.375 24.125ZM18.3125 34.25C19.5208 35.4583 20.9896 36.1354 22.7188 36.2812C24.4479 36.4271 26 36.0208 27.375 35.0625L17.4375 25.1875C16.5208 26.5625 16.125 28.1042 16.25 29.8125C16.375 31.5208 17.0625 33 18.3125 34.25ZM56.6875 6.5C57.3542 6.75 57.8958 7.17708 58.3125 7.78125C58.7292 8.38542 58.9375 9.0625 58.9375 9.8125V20.75C58.9375 21.125 58.8021 21.4375 58.5312 21.6875C58.2604 21.9375 57.9375 22.0625 57.5625 22.0625H56.6875V49C56.6875 51.0833 56.2917 53.0208 55.5 54.8125C54.7083 56.6458 53.6354 58.2396 52.2812 59.5938C50.9271 60.9479 49.3542 62.0208 47.5625 62.8125C45.7292 63.6042 43.7708 64 41.6875 64C39.6875 64 37.7917 63.625 36 62.875C34.2083 62.125 32.6354 61.0938 31.2812 59.7812C29.9271 58.4688 28.8333 56.9375 28 55.1875C27.2083 53.3958 26.7708 51.5 26.6875 49.5H11.125C9.45833 49.5 8.03125 48.9062 6.84375 47.7188C5.65625 46.5312 5.0625 45.1042 5.0625 43.4375V6.0625C5.0625 4.39583 5.65625 2.96875 6.84375 1.78125C8.03125 0.59375 9.45833 0 11.125 0H35.625C37.2917 0 38.7083 0.59375 39.875 1.78125C41.0417 2.96875 41.625 4.39583 41.625 6.0625V43.4375C41.625 44.8958 41.1771 46.1667 40.2812 47.25C39.3854 48.3333 38.2708 49.0417 36.9375 49.375V50.25C36.9375 51.4583 37.3646 52.4896 38.2188 53.3438C39.0729 54.1979 40.1042 54.625 41.3125 54.625C42.5208 54.625 43.5417 54.1979 44.375 53.3438C45.2083 52.4896 45.625 51.4583 45.625 50.25V22.0625H44.75C44.375 22.0625 44.0625 21.9375 43.8125 21.6875C43.5625 21.4375 43.4375 21.125 43.4375 20.75V9.8125C43.4375 9.0625 43.6458 8.38542 44.0625 7.78125C44.4792 7.17708 45 6.75 45.625 6.5V1.3125C45.625 0.979167 45.7604 0.677083 46.0312 0.40625C46.3021 0.135417 46.625 0 47 0C47.375 0 47.6875 0.135417 47.9375 0.40625C48.1875 0.677083 48.3125 0.979167 48.3125 1.3125V6.5C48.9792 6.75 49.5208 7.17708 49.9375 7.78125C50.3542 8.38542 50.5625 9.0625 50.5625 9.8125V20.75C50.5625 21.125 50.4271 21.4375 50.1562 21.6875C49.8854 21.9375 49.5833 22.0625 49.25 22.0625H48.3125V50.25C48.3125 52.2083 47.625 53.875 46.25 55.25C44.875 56.625 43.2292 57.3125 41.3125 57.3125C39.3542 57.3125 37.6875 56.625 36.3125 55.25C34.9375 53.875 34.25 52.2083 34.25 50.25V49.5H29.375C29.5 52.7917 30.7604 55.5833 33.1562 57.875C35.5521 60.1667 38.3958 61.3125 41.6875 61.3125C43.3958 61.3125 45 61 46.5 60.375C48 59.7083 49.3021 58.8229 50.4062 57.7188C51.5104 56.6146 52.3958 55.3125 53.0625 53.8125C53.6875 52.3125 54 50.7083 54 49V22.0625H53.125C52.75 22.0625 52.4375 21.9375 52.1875 21.6875C51.9375 21.4375 51.8125 21.125 51.8125 20.75V9.8125C51.8125 9.0625 52.0208 8.38542 52.4375 7.78125C52.8542 7.17708 53.375 6.75 54 6.5V1.3125C54 0.979167 54.1354 0.677083 54.4062 0.40625C54.6771 0.135417 55 0 55.375 0C55.75 0 56.0625 0.135417 56.3125 0.40625C56.5625 0.677083 56.6875 0.979167 56.6875 1.3125V6.5ZM47.875 9.8125C47.875 9.5625 47.7917 9.35417 47.625 9.1875C47.4583 9.02083 47.25 8.9375 47 8.9375C46.75 8.9375 46.5417 9.02083 46.375 9.1875C46.2083 9.35417 46.125 9.5625 46.125 9.8125V19.375H47.875V9.8125ZM7.75 43.4375C7.75 44.3958 8.07292 45.1979 8.71875 45.8438C9.36458 46.4896 10.1667 46.8125 11.125 46.8125H35.625C36.5417 46.8125 37.3229 46.4896 37.9688 45.8438C38.6146 45.1979 38.9375 44.3958 38.9375 43.4375V6.0625C38.9375 5.10417 38.6146 4.30208 37.9688 3.65625C37.3229 3.01042 36.5417 2.6875 35.625 2.6875H11.125C10.1667 2.6875 9.36458 3.01042 8.71875 3.65625C8.07292 4.30208 7.75 5.10417 7.75 6.0625V43.4375ZM56.25 9.8125C56.25 9.5625 56.1667 9.35417 56 9.1875C55.8333 9.02083 55.625 8.9375 55.375 8.9375C55.125 8.9375 54.9167 9.02083 54.75 9.1875C54.5833 9.35417 54.5 9.5625 54.5 9.8125V19.375H56.25V9.8125ZM36.3125 45.0625C36.3125 45.4375 36.1771 45.75 35.9062 46C35.6354 46.25 35.3125 46.375 34.9375 46.375C34.5625 46.375 34.25 46.25 34 46C33.75 45.75 33.625 45.4375 33.625 45.0625V44.6875H33.25C32.9167 44.6875 32.6146 44.5625 32.3438 44.3125C32.0729 44.0625 31.9375 43.75 31.9375 43.375C31.9375 43 32.0729 42.6875 32.3438 42.4375C32.6146 42.1875 32.9167 42.0625 33.25 42.0625H33.625V41.6875C33.625 41.3125 33.75 41 34 40.75C34.25 40.5 34.5625 40.375 34.9375 40.375C35.3125 40.375 35.6354 40.5 35.9062 40.75C36.1771 41 36.3125 41.3125 36.3125 41.6875V42.0625H36.625C37 42.0625 37.3125 42.1875 37.5625 42.4375C37.8125 42.6875 37.9375 43 37.9375 43.375C37.9375 43.75 37.8125 44.0625 37.5625 44.3125C37.3125 44.5625 37 44.6875 36.625 44.6875H36.3125V45.0625ZM30 42.0625C30.375 42.0625 30.6979 42.1875 30.9688 42.4375C31.2396 42.6875 31.375 43 31.375 43.375C31.375 43.75 31.2396 44.0625 30.9688 44.3125C30.6979 44.5625 30.375 44.6875 30 44.6875H26.6875C26.3125 44.6875 25.9896 44.5625 25.7188 44.3125C25.4479 44.0625 25.3125 43.75 25.3125 43.375C25.3125 43 25.4479 42.6875 25.7188 42.4375C25.9896 42.1875 26.3125 42.0625 26.6875 42.0625H30Z" fill="white"/>
</svg>
