<svg width="64" height="64" viewBox="0 0 64 64" fill="none" xmlns="http://www.w3.org/2000/svg">
<path d="M31.8125 0C31.5625 0 31.3229 0.0520833 31.0938 0.15625C30.8646 0.260417 30.6875 0.416667 30.5625 0.625C30.3542 0.916667 29.2292 2.64583 27.1875 5.8125C25.1042 8.97917 22.8646 12.75 20.4688 17.125C18.0729 21.5 15.8958 26.0833 13.9375 30.875C11.9792 35.625 11 39.7292 11 43.1875C11 46.0625 11.5417 48.7708 12.625 51.3125C13.7083 53.8125 15.1979 56.0104 17.0938 57.9062C18.9896 59.8021 21.1875 61.2917 23.6875 62.375C26.2292 63.4583 28.9375 64 31.8125 64C34.6458 64 37.3333 63.4583 39.875 62.375C42.375 61.2917 44.5729 59.8021 46.4688 57.9062C48.3646 56.0104 49.8542 53.8125 50.9375 51.3125C52.0208 48.7708 52.5625 46.0625 52.5625 43.1875C52.5625 39.7292 51.5833 35.625 49.625 30.875C47.6667 26.0833 45.4896 21.5 43.0938 17.125C40.6979 12.75 38.4583 8.97917 36.375 5.8125C34.3333 2.64583 33.2083 0.916667 33 0.625C32.875 0.416667 32.6979 0.260417 32.4688 0.15625C32.2396 0.0520833 32.0208 0 31.8125 0ZM31.8125 61.0625C29.3125 61.0625 26.9792 60.6042 24.8125 59.6875C22.6458 58.7292 20.7604 57.4479 19.1562 55.8438C17.5521 54.2396 16.2708 52.3542 15.3125 50.1875C14.3958 48.0208 13.9375 45.6875 13.9375 43.1875C13.9375 40.4375 14.6667 37.1458 16.125 33.3125C17.5833 29.5208 19.3021 25.7188 21.2812 21.9062C23.2604 18.0938 25.25 14.5833 27.25 11.375C29.2083 8.125 30.7292 5.70833 31.8125 4.125C32.8542 5.70833 34.3542 8.125 36.3125 11.375C38.3125 14.5833 40.3021 18.0938 42.2812 21.9062C44.2604 25.7188 45.9792 29.5208 47.4375 33.3125C48.8958 37.1458 49.625 40.4375 49.625 43.1875C49.625 45.6875 49.1667 48.0208 48.25 50.1875C47.2917 52.3542 46.0104 54.2396 44.4062 55.8438C42.8021 57.4479 40.9167 58.7292 38.75 59.6875C36.5833 60.6042 34.2708 61.0625 31.8125 61.0625ZM30.3125 55.6875C30.3125 56.1042 30.4583 56.4583 30.75 56.75C31.0417 57.0417 31.3958 57.1875 31.8125 57.1875C33.7292 57.1875 35.5208 56.8125 37.1875 56.0625C38.8958 55.3125 40.3854 54.3125 41.6562 53.0625C42.9271 51.8125 43.9167 50.3333 44.625 48.625C45.375 46.9583 45.75 45.1458 45.75 43.1875C45.75 42.8125 45.6042 42.4792 45.3125 42.1875C45.0208 41.8958 44.6667 41.75 44.25 41.75C43.8333 41.75 43.4896 41.8958 43.2188 42.1875C42.9479 42.4792 42.8125 42.8125 42.8125 43.1875C42.8125 46.2292 41.7292 48.8333 39.5625 51C37.3958 53.1667 34.8125 54.25 31.8125 54.25C31.3958 54.25 31.0417 54.3854 30.75 54.6562C30.4583 54.9271 30.3125 55.2708 30.3125 55.6875Z" fill="white"/>
</svg>
