<svg width="64" height="64" viewBox="0 0 64 64" fill="none" xmlns="http://www.w3.org/2000/svg">
<path d="M58.5628 10.75C58.6461 14.75 58.4795 18.5833 58.0628 22.25C57.6878 25.9167 57.0628 29.3958 56.1878 32.6875C55.3128 35.9792 54.1878 39.0833 52.8128 42C51.4378 44.9167 49.8336 47.6458 48.0003 50.1875C47.0003 51.6042 45.9378 52.9375 44.8128 54.1875C43.6878 55.4375 42.4899 56.625 41.2191 57.75C39.9482 58.875 38.6253 59.9375 37.2503 60.9375C35.8753 61.9375 34.4378 62.875 32.9378 63.75C32.6461 63.9167 32.3336 64 32.0003 64C31.667 64 31.3753 63.9167 31.1253 63.75C29.6253 62.875 28.1878 61.9375 26.8128 60.9375C25.3961 59.9375 24.0628 58.875 22.8128 57.75C21.5628 56.625 20.3545 55.4375 19.1878 54.1875C18.0628 52.9375 17.0003 51.6042 16.0003 50.1875C14.167 47.6458 12.5628 44.9167 11.1878 42C9.8128 39.0417 8.6878 35.9271 7.8128 32.6562C6.9378 29.3854 6.3128 25.9167 5.9378 22.25C5.52113 18.5833 5.3753 14.75 5.5003 10.75C5.54197 10.2917 5.69822 9.90625 5.96905 9.59375C6.23988 9.28125 6.58363 9.08333 7.0003 9C8.95863 8.75 10.9066 8.38542 12.8441 7.90625C14.7816 7.42708 16.7086 6.83333 18.6253 6.125C20.542 5.41667 22.542 4.58333 24.6253 3.625C26.7086 2.66667 28.8753 1.54167 31.1253 0.25C31.417 0.0833333 31.7086 0 32.0003 0C32.292 0 32.5836 0.0833333 32.8753 0.25C35.1253 1.54167 37.3024 2.67708 39.4066 3.65625C41.5107 4.63542 43.5003 5.45833 45.3753 6.125C47.292 6.83333 49.2295 7.42708 51.1878 7.90625C53.1461 8.38542 55.1045 8.75 57.0628 9C57.4795 9.08333 57.8232 9.28125 58.0941 9.59375C58.3649 9.90625 58.5211 10.2917 58.5628 10.75ZM45.1878 48.25C46.8545 45.9167 48.3128 43.4167 49.5628 40.75C50.8128 38.125 51.8545 35.3125 52.6878 32.3125C53.5211 29.3125 54.1253 26.125 54.5003 22.75C54.917 19.4167 55.1045 15.9167 55.0628 12.25C53.1878 11.9583 51.3336 11.5625 49.5003 11.0625C47.667 10.5625 45.8336 9.97917 44.0003 9.3125C42.167 8.64583 40.2503 7.84375 38.2503 6.90625C36.2503 5.96875 34.167 4.91667 32.0003 3.75C29.8336 4.91667 27.7503 5.96875 25.7503 6.90625C23.7503 7.84375 21.8336 8.64583 20.0003 9.3125C18.167 9.97917 16.3336 10.5625 14.5003 11.0625C12.667 11.5625 10.8128 11.9583 8.9378 12.25C8.89613 15.9167 9.08363 19.4167 9.5003 22.75C9.8753 26.0417 10.4795 29.1875 11.3128 32.1875C12.1461 35.1875 13.1878 38.0208 14.4378 40.6875C15.6878 43.3542 17.1461 45.875 18.8128 48.25C20.5628 50.6667 22.5316 52.875 24.7191 54.875C26.9066 56.875 29.3336 58.6875 32.0003 60.3125C34.667 58.6875 37.0941 56.875 39.2816 54.875C41.4691 52.875 43.4378 50.6667 45.1878 48.25Z" fill="white"/>
</svg>
