<svg width="64" height="64" viewBox="0 0 64 64" fill="none" xmlns="http://www.w3.org/2000/svg">
<g clip-path="url(#clip0_3519_336)">
<path d="M62.6875 14.875C63.0625 14.875 63.375 15 63.625 15.25C63.875 15.5 64 15.8125 64 16.1875V24.3125C64 24.6875 63.875 25 63.625 25.25C63.375 25.5 63.0625 25.625 62.6875 25.625H62.5V54.125C62.5 54.4583 62.3646 54.75 62.0938 55C61.8229 55.25 61.5208 55.375 61.1875 55.375H2.8125C2.47917 55.375 2.17708 55.25 1.90625 55C1.63542 54.75 1.5 54.4583 1.5 54.125V25.625H1.3125C0.9375 25.625 0.625 25.5 0.375 25.25C0.125 25 0 24.6875 0 24.3125V16.1875C0 15.8125 0.125 15.5 0.375 15.25C0.625 15 0.9375 14.875 1.3125 14.875H7.0625V9.875C7.0625 9.54167 7.1875 9.25 7.4375 9C7.6875 8.75 8 8.625 8.375 8.625H13.3125C13.6458 8.625 13.9375 8.75 14.1875 9C14.4375 9.25 14.5625 9.54167 14.5625 9.875V14.875H49.4375V9.875C49.4375 9.54167 49.5625 9.25 49.8125 9C50.0625 8.75 50.3542 8.625 50.6875 8.625H55.625C56 8.625 56.3125 8.75 56.5625 9C56.8125 9.25 56.9375 9.54167 56.9375 9.875V14.875H62.6875ZM52 11.1875V14.875H54.375V11.1875H52ZM9.625 11.1875V14.875H12V11.1875H9.625ZM2.5625 17.4375V23.0625H61.4375V17.4375H2.5625ZM59.875 52.8125V25.625H4.125V52.8125H59.875ZM11.1875 36.0625H10C9.66667 36.0625 9.36458 35.9375 9.09375 35.6875C8.82292 35.4375 8.6875 35.1458 8.6875 34.8125C8.6875 34.4375 8.82292 34.125 9.09375 33.875C9.36458 33.625 9.66667 33.5 10 33.5H11.1875V32.375C11.1875 32 11.3125 31.6875 11.5625 31.4375C11.8125 31.1875 12.1042 31.0625 12.4375 31.0625C12.8125 31.0625 13.125 31.1875 13.375 31.4375C13.625 31.6875 13.75 32 13.75 32.375V33.5H14.875C15.25 33.5 15.5625 33.625 15.8125 33.875C16.0625 34.125 16.1875 34.4375 16.1875 34.8125C16.1875 35.1458 16.0625 35.4375 15.8125 35.6875C15.5625 35.9375 15.25 36.0625 14.875 36.0625H13.75V37.25C13.75 37.5833 13.625 37.875 13.375 38.125C13.125 38.375 12.8125 38.5 12.4375 38.5C12.1042 38.5 11.8125 38.375 11.5625 38.125C11.3125 37.875 11.1875 37.5833 11.1875 37.25V36.0625ZM12.4375 41.8125C10.5208 41.8125 8.875 41.125 7.5 39.75C6.125 38.375 5.4375 36.7292 5.4375 34.8125C5.4375 32.8542 6.125 31.1875 7.5 29.8125C8.875 28.4375 10.5208 27.75 12.4375 27.75C14.3958 27.75 16.0625 28.4375 17.4375 29.8125C18.8125 31.1875 19.5 32.8542 19.5 34.8125C19.5 36.7292 18.8125 38.375 17.4375 39.75C16.0625 41.125 14.3958 41.8125 12.4375 41.8125ZM12.4375 30.3125C11.2292 30.3125 10.1875 30.75 9.3125 31.625C8.4375 32.5 8 33.5625 8 34.8125C8 36.0208 8.4375 37.0625 9.3125 37.9375C10.1875 38.8125 11.2292 39.25 12.4375 39.25C13.6875 39.25 14.7396 38.8125 15.5938 37.9375C16.4479 37.0625 16.875 36.0208 16.875 34.8125C16.875 33.5625 16.4479 32.5 15.5938 31.625C14.7396 30.75 13.6875 30.3125 12.4375 30.3125ZM54.4375 36.0625H49.5625C49.2292 36.0625 48.9271 35.9375 48.6562 35.6875C48.3854 35.4375 48.25 35.1458 48.25 34.8125C48.25 34.4375 48.3854 34.125 48.6562 33.875C48.9271 33.625 49.2292 33.5 49.5625 33.5H54.4375C54.8125 33.5 55.125 33.625 55.375 33.875C55.625 34.125 55.75 34.4375 55.75 34.8125C55.75 35.1458 55.625 35.4375 55.375 35.6875C55.125 35.9375 54.8125 36.0625 54.4375 36.0625ZM52 41.8125C50.0833 41.8125 48.4375 41.125 47.0625 39.75C45.6875 38.375 45 36.7292 45 34.8125C45 32.8542 45.6875 31.1875 47.0625 29.8125C48.4375 28.4375 50.0833 27.75 52 27.75C53.9583 27.75 55.625 28.4375 57 29.8125C58.375 31.1875 59.0625 32.8542 59.0625 34.8125C59.0625 36.7292 58.375 38.375 57 39.75C55.625 41.125 53.9583 41.8125 52 41.8125ZM52 30.3125C50.7917 30.3125 49.75 30.75 48.875 31.625C48 32.5 47.5625 33.5625 47.5625 34.8125C47.5625 36.0208 48 37.0625 48.875 37.9375C49.75 38.8125 50.7917 39.25 52 39.25C53.25 39.25 54.3021 38.8125 55.1562 37.9375C56.0104 37.0625 56.4375 36.0208 56.4375 34.8125C56.4375 33.5625 56.0104 32.5 55.1562 31.625C54.3021 30.75 53.25 30.3125 52 30.3125ZM27.75 39.4375C27.5417 39.2708 27.3958 39.0625 27.3125 38.8125C27.2292 38.5625 27.2083 38.3125 27.25 38.0625L29.875 28.25C29.9583 27.9167 30.1562 27.6562 30.4688 27.4688C30.7812 27.2812 31.1042 27.2292 31.4375 27.3125C31.8125 27.3958 32.0833 27.5938 32.25 27.9062C32.4167 28.2188 32.4583 28.5417 32.375 28.875L30.5625 35.75L34.8125 33.25C35.0625 33.125 35.3125 33.0729 35.5625 33.0938C35.8125 33.1146 36.0417 33.2083 36.25 33.375C36.4583 33.5 36.6042 33.6875 36.6875 33.9375C36.7708 34.1875 36.7917 34.4375 36.75 34.6875L33.0625 48.625C32.9792 48.875 32.8229 49.0938 32.5938 49.2812C32.3646 49.4688 32.1042 49.5625 31.8125 49.5625H31.625C31.625 49.5625 31.5625 49.5417 31.4375 49.5C31.1042 49.4167 30.8542 49.2188 30.6875 48.9062C30.5208 48.5938 30.4792 48.2708 30.5625 47.9375L33.4375 37.0625L29.1875 39.5625C28.9375 39.6875 28.6875 39.7396 28.4375 39.7188C28.1875 39.6979 27.9583 39.6042 27.75 39.4375Z" fill="white"/>
</g>
<defs>
<clipPath id="clip0_3519_336">
<rect width="64" height="64" fill="white"/>
</clipPath>
</defs>
</svg>
