<svg width="64" height="64" viewBox="0 0 64 64" fill="none" xmlns="http://www.w3.org/2000/svg">
<g clip-path="url(#clip0_3519_344)">
<path d="M62.6875 11.75C63.0625 11.75 63.375 11.8854 63.625 12.1562C63.875 12.4271 64 12.75 64 13.125V26.0625C64 26.4375 63.875 26.75 63.625 27C63.375 27.25 63.0625 27.375 62.6875 27.375H59.6875V27.8125C59.6875 28.1875 59.5625 28.5104 59.3125 28.7812C59.0625 29.0521 58.75 29.1875 58.375 29.1875H51.5625C51.1875 29.1875 50.875 29.0521 50.625 28.7812C50.375 28.5104 50.25 28.1875 50.25 27.8125V27.375H48.375C49 28.875 49.4688 30.4271 49.7812 32.0312C50.0938 33.6354 50.25 35.25 50.25 36.875C50.25 40.3333 49.5833 43.5833 48.25 46.625C46.9167 49.7083 45.1146 52.3854 42.8438 54.6562C40.5729 56.9271 37.9167 58.7083 34.875 60C31.8333 61.3333 28.5833 62 25.125 62C21.6667 62 18.4167 61.3333 15.375 60C12.2917 58.7083 9.61458 56.9271 7.34375 54.6562C5.07292 52.3854 3.29167 49.7083 2 46.625C0.666667 43.5833 0 40.3333 0 36.875C0 33.6667 0.5625 30.625 1.6875 27.75C2.85417 24.9167 4.4375 22.3854 6.4375 20.1562C8.4375 17.9271 10.7917 16.0833 13.5 14.625C16.1667 13.2083 19.0625 12.3125 22.1875 11.9375L21.6875 10.5625L21.4375 10.625C21.3542 10.6667 21.2708 10.6979 21.1875 10.7187C21.1042 10.7396 21.0208 10.75 20.9375 10.75C20.6458 10.75 20.3958 10.6771 20.1875 10.5312C19.9792 10.3854 19.8125 10.1667 19.6875 9.87499C19.5625 9.54166 19.5729 9.20832 19.7188 8.87499C19.8646 8.54166 20.1042 8.31249 20.4375 8.18749L35.9375 2.06249C36.3125 1.93749 36.6667 1.94791 37 2.09374C37.3333 2.23957 37.5625 2.47916 37.6875 2.81249C37.8125 3.18749 37.8021 3.54166 37.6562 3.87499C37.5104 4.20832 37.2708 4.43749 36.9375 4.56249L36.6875 4.62499L39.5 11.75H50.25V11.3125C50.25 10.9375 50.375 10.625 50.625 10.375C50.875 10.125 51.1875 9.99999 51.5625 9.99999H58.375C58.75 9.99999 59.0625 10.125 59.3125 10.375C59.5625 10.625 59.6875 10.9375 59.6875 11.3125V11.75H62.6875ZM24.125 9.56249L25 11.75H36.625L34.25 5.62499L24.125 9.56249ZM25.125 24.75H50.25V14.4375H25.125C22 14.4375 19.0833 15.0208 16.375 16.1875C13.6667 17.3542 11.2917 18.9583 9.25 21C7.20833 23.0417 5.60417 25.4167 4.4375 28.125C3.22917 30.875 2.625 33.7917 2.625 36.875C2.625 40 3.22917 42.9167 4.4375 45.625C5.60417 48.375 7.20833 50.7604 9.25 52.7812C11.2917 54.8021 13.6667 56.3958 16.375 57.5625C19.0833 58.7708 22 59.375 25.125 59.375C28.2083 59.375 31.125 58.7708 33.875 57.5625C36.5833 56.3958 38.9583 54.8021 41 52.7812C43.0417 50.7604 44.6458 48.375 45.8125 45.625C46.9792 42.9167 47.5625 40 47.5625 36.875C47.5625 35.2083 47.3854 33.5833 47.0312 32C46.6771 30.4167 46.1667 28.875 45.5 27.375H32.6875C34.0625 28.5 35.1667 29.8854 36 31.5312C36.8333 33.1771 37.25 34.9583 37.25 36.875C37.25 38.5417 36.9375 40.125 36.3125 41.625C35.6875 43.0833 34.8229 44.3646 33.7188 45.4687C32.6146 46.5729 31.3125 47.4375 29.8125 48.0625C28.3542 48.7292 26.7917 49.0625 25.125 49.0625C23.4583 49.0625 21.875 48.7292 20.375 48.0625C18.9167 47.4375 17.6354 46.5729 16.5312 45.4687C15.4271 44.3646 14.5625 43.0833 13.9375 41.625C13.2708 40.125 12.9375 38.5417 12.9375 36.875C12.9375 35.2083 13.2708 33.6458 13.9375 32.1875C14.5625 30.6875 15.4271 29.3854 16.5312 28.2812C17.6354 27.1771 18.9167 26.3125 20.375 25.6875C21.875 25.0625 23.4583 24.75 25.125 24.75ZM27.9375 36.875C27.9375 36.125 27.6667 35.4687 27.125 34.9062C26.5833 34.3437 25.9167 34.0625 25.125 34.0625C24.3333 34.0625 23.6667 34.3437 23.125 34.9062C22.5833 35.4687 22.3125 36.125 22.3125 36.875C22.3125 37.6667 22.5833 38.3333 23.125 38.875C23.6667 39.4167 24.3333 39.6875 25.125 39.6875C25.9167 39.6875 26.5833 39.4167 27.125 38.875C27.6667 38.3333 27.9375 37.6667 27.9375 36.875ZM26.4375 31.5625C26.4792 31.6042 26.5104 31.625 26.5312 31.625H26.625L28.6875 28.0625C28.3125 27.9375 27.9375 27.8229 27.5625 27.7187C27.1875 27.6146 26.8125 27.5417 26.4375 27.5V31.5625ZM23.8125 31.5625V27.5C23.3958 27.5417 23 27.6146 22.625 27.7187C22.25 27.8229 21.8958 27.9375 21.5625 28.0625L23.625 31.625H23.6875C23.6875 31.625 23.7292 31.6042 23.8125 31.5625ZM19.25 29.375C18.9583 29.625 18.6771 29.8854 18.4062 30.1562C18.1354 30.4271 17.875 30.7292 17.625 31.0625L21.1875 33.125C21.1875 33.0833 21.2083 33.0521 21.25 33.0312C21.2917 33.0104 21.3125 32.9792 21.3125 32.9375L19.25 29.375ZM16.3125 33.3125C16.1458 33.6875 16.0208 34.0625 15.9375 34.4375L15.6875 35.5625H19.8125C19.8125 35.5208 19.8229 35.4896 19.8438 35.4687C19.8646 35.4479 19.875 35.4167 19.875 35.375L16.3125 33.3125ZM19.8125 38.1875H15.6875C15.7708 38.6042 15.8542 39 15.9375 39.375C16.0208 39.75 16.1458 40.1042 16.3125 40.4375L19.875 38.375L19.8438 38.3125C19.8438 38.3125 19.8333 38.2708 19.8125 38.1875ZM21.1875 40.6875L17.625 42.75C17.875 43.0417 18.1354 43.3229 18.4062 43.5937C18.6771 43.8646 18.9583 44.125 19.25 44.375L21.3125 40.8125L21.25 40.7812C21.25 40.7812 21.2292 40.75 21.1875 40.6875ZM23.625 42.125L21.5625 45.6875C21.8958 45.8542 22.25 45.9896 22.625 46.0937C23 46.1979 23.3958 46.2708 23.8125 46.3125V42.1875H23.6875C23.6875 42.1875 23.6667 42.1667 23.625 42.125ZM26.4375 42.1875V46.3125C26.8125 46.2708 27.1875 46.1979 27.5625 46.0937C27.9375 45.9896 28.3125 45.8542 28.6875 45.6875L26.625 42.125C26.5833 42.1667 26.5521 42.1875 26.5312 42.1875H26.4375ZM30.9375 44.375C31.2708 44.125 31.5729 43.8646 31.8438 43.5937C32.1146 43.3229 32.375 43.0417 32.625 42.75L29.0625 40.6875L28.9375 40.8125L30.9375 44.375ZM33.9375 40.4375C34.0625 40.1042 34.1771 39.75 34.2812 39.375C34.3854 39 34.4583 38.6042 34.5 38.1875H30.4375C30.4375 38.2292 30.4271 38.2708 30.4062 38.3125L30.375 38.375L33.9375 40.4375ZM30.4375 35.5625H34.5C34.4583 35.1875 34.3854 34.8125 34.2812 34.4375C34.1771 34.0625 34.0625 33.6875 33.9375 33.3125L30.375 35.375C30.375 35.4167 30.3854 35.4479 30.4062 35.4687C30.4271 35.4896 30.4375 35.5208 30.4375 35.5625ZM29.0625 33.125L32.625 31.0625C32.375 30.7292 32.1146 30.4271 31.8438 30.1562C31.5729 29.8854 31.2708 29.625 30.9375 29.375L28.9375 32.9375C28.9375 32.9792 28.9479 33.0104 28.9688 33.0312L29.0625 33.125ZM57.0625 26.5V12.625H52.875V26.5H57.0625ZM61.375 24.75V14.4375H59.6875V24.75H61.375Z" fill="white"/>
</g>
<defs>
<clipPath id="clip0_3519_344">
<rect width="64" height="64" fill="white"/>
</clipPath>
</defs>
</svg>
