<svg width="64" height="64" viewBox="0 0 64 64" fill="none" xmlns="http://www.w3.org/2000/svg">
<g clip-path="url(#clip0_3519_364)">
<path d="M27.5625 27.1875C30.0625 27.1875 32.1979 28.0625 33.9688 29.8125C35.7396 31.5625 36.625 33.6875 36.625 36.1875C36.625 38.6875 35.7396 40.8125 33.9688 42.5625C32.1979 44.3125 30.0625 45.1875 27.5625 45.1875C25.1042 45.1875 22.9896 44.3125 21.2188 42.5625C19.4479 40.8125 18.5625 38.6875 18.5625 36.1875C18.5625 33.6875 19.4479 31.5625 21.2188 29.8125C22.9896 28.0625 25.1042 27.1875 27.5625 27.1875ZM27.5625 42.625C29.3542 42.625 30.8854 42 32.1562 40.75C33.4271 39.5 34.0625 37.9792 34.0625 36.1875C34.0625 34.4375 33.4271 32.9271 32.1562 31.6562C30.8854 30.3854 29.3542 29.75 27.5625 29.75C25.8125 29.75 24.3021 30.3854 23.0312 31.6562C21.7604 32.9271 21.125 34.4375 21.125 36.1875C21.125 37.9792 21.7604 39.5 23.0312 40.75C24.3021 42 25.8125 42.625 27.5625 42.625ZM27.5625 23.125C29.3958 23.125 31.1042 23.4792 32.6875 24.1875C34.2708 24.8542 35.6458 25.7812 36.8125 26.9688C37.9792 28.1562 38.9167 29.5417 39.625 31.125C40.2917 32.7083 40.625 34.3958 40.625 36.1875C40.625 37.9792 40.2917 39.6667 39.625 41.25C38.9167 42.8333 37.9792 44.2188 36.8125 45.4062C35.6458 46.5938 34.2708 47.5417 32.6875 48.25C31.1042 48.9167 29.3958 49.25 27.5625 49.25C25.7708 49.25 24.0833 48.9167 22.5 48.25C20.9167 47.5417 19.5312 46.5938 18.3438 45.4062C17.1562 44.2188 16.2292 42.8333 15.5625 41.25C14.8958 39.6667 14.5625 37.9792 14.5625 36.1875C14.5625 34.3958 14.8958 32.7083 15.5625 31.125C16.2292 29.5417 17.1562 28.1562 18.3438 26.9688C19.5312 25.7812 20.9167 24.8542 22.5 24.1875C24.0833 23.4792 25.7708 23.125 27.5625 23.125ZM27.5625 46.6875C30.4792 46.6875 32.9583 45.6562 35 43.5938C37.0417 41.5312 38.0625 39.0625 38.0625 36.1875C38.0625 33.3125 37.0417 30.8438 35 28.7812C32.9583 26.7188 30.4792 25.6875 27.5625 25.6875C24.6875 25.6875 22.2292 26.7188 20.1875 28.7812C18.1458 30.8438 17.125 33.3125 17.125 36.1875C17.125 39.0625 18.1458 41.5312 20.1875 43.5938C22.2292 45.6562 24.6875 46.6875 27.5625 46.6875ZM62.6875 15.5C63.0625 15.5 63.375 15.625 63.625 15.875C63.875 16.125 64 16.4167 64 16.75V24.5C64 24.8333 63.875 25.1354 63.625 25.4062C63.375 25.6771 63.0625 25.8125 62.6875 25.8125H59.875C59.7083 26.2708 59.5312 26.7292 59.3438 27.1875C59.1562 27.6458 58.9583 28.0833 58.75 28.5L60.75 30.5C61 30.75 61.125 31.0625 61.125 31.4375C61.125 31.8125 61 32.125 60.75 32.375L55.3125 37.8125C55.2708 37.8125 55.2396 37.8229 55.2188 37.8438L55.1875 37.875V40C55.1875 40.375 55.0625 40.6875 54.8125 40.9375C54.5625 41.1875 54.25 41.3125 53.875 41.3125H50.5C50.4167 41.6042 50.3333 41.9167 50.25 42.25C50.1667 42.5833 50.0625 42.9167 49.9375 43.25L52.9375 44.9375C53.0625 45.0208 53.1771 45.1354 53.2812 45.2812C53.3854 45.4271 53.4583 45.5625 53.5 45.6875C53.5417 45.8542 53.5521 46.0312 53.5312 46.2188C53.5104 46.4062 53.4583 46.5625 53.375 46.6875L49.5625 53.3125C49.3958 53.6042 49.1458 53.7917 48.8125 53.875C48.4792 53.9583 48.1458 53.9167 47.8125 53.75L44.875 52.0625L44.1562 52.7812C44.1562 52.7812 43.9167 53 43.4375 53.4375L45.125 56.4375C45.25 56.5625 45.3229 56.7188 45.3438 56.9062C45.3646 57.0938 45.3542 57.25 45.3125 57.375C45.2292 57.5417 45.1458 57.6979 45.0625 57.8438C44.9792 57.9896 44.8542 58.1042 44.6875 58.1875L38.0625 62C37.7708 62.1667 37.4583 62.2083 37.125 62.125C36.7917 62.0417 36.5208 61.8333 36.3125 61.5L34.625 58.5625C34.2917 58.6458 33.9688 58.7396 33.6562 58.8438C33.3438 58.9479 33.0208 59.0208 32.6875 59.0625V62.5C32.6875 62.875 32.5625 63.1875 32.3125 63.4375C32.0625 63.6875 31.75 63.8125 31.375 63.8125H23.8125C23.4375 63.8125 23.125 63.6875 22.875 63.4375C22.625 63.1875 22.5 62.875 22.5 62.5V59.0625C22.1667 59.0208 21.8438 58.9479 21.5312 58.8438C21.2188 58.7396 20.8958 58.6458 20.5625 58.5625L18.875 61.5C18.6667 61.8333 18.3958 62.0417 18.0625 62.125C17.7292 62.2083 17.3958 62.1667 17.0625 62L10.5 58.1875C10.3333 58.1042 10.1979 57.9896 10.0938 57.8438C9.98958 57.6979 9.91667 57.5417 9.875 57.375C9.83333 57.25 9.82292 57.0938 9.84375 56.9062C9.86458 56.7188 9.91667 56.5625 10 56.4375L11.75 53.4375C11.5 53.2292 11.2604 53.0104 11.0312 52.7812L10.3125 52.0625L7.375 53.75C7.04167 53.9167 6.70833 53.9583 6.375 53.875C6.04167 53.7917 5.79167 53.6042 5.625 53.3125L1.8125 46.6875C1.72917 46.5625 1.67708 46.4062 1.65625 46.2188C1.63542 46.0312 1.64583 45.8542 1.6875 45.6875C1.72917 45.5625 1.80208 45.4271 1.90625 45.2812C2.01042 45.1354 2.125 45.0208 2.25 44.9375L5.25 43.25C5.125 42.9167 5.02083 42.5833 4.9375 42.25C4.85417 41.9167 4.77083 41.6042 4.6875 41.3125H1.3125C0.9375 41.3125 0.625 41.1875 0.375 40.9375C0.125 40.6875 0 40.375 0 40V32.375C0 32.0417 0.125 31.75 0.375 31.5C0.625 31.25 0.9375 31.125 1.3125 31.125H4.6875L4.9375 30.125C4.9375 30.125 5.04167 29.8125 5.25 29.1875L2.25 27.4375C1.95833 27.2708 1.76042 27.0208 1.65625 26.6875C1.55208 26.3542 1.60417 26.0208 1.8125 25.6875L5.625 19.125C5.70833 18.9583 5.8125 18.8229 5.9375 18.7188C6.0625 18.6146 6.20833 18.5417 6.375 18.5C6.54167 18.4583 6.70833 18.4479 6.875 18.4688C7.04167 18.4896 7.20833 18.5417 7.375 18.625L10.3125 20.375C10.5625 20.125 10.8021 19.875 11.0312 19.625C11.2604 19.375 11.5 19.1458 11.75 18.9375L10 15.9375C9.91667 15.8125 9.86458 15.6667 9.84375 15.5C9.82292 15.3333 9.83333 15.1667 9.875 15C9.91667 14.8333 9.98958 14.6771 10.0938 14.5312C10.1979 14.3854 10.3333 14.2708 10.5 14.1875L17.0625 10.375C17.2292 10.2917 17.3958 10.2396 17.5625 10.2188C17.7292 10.1979 17.8958 10.2083 18.0625 10.25C18.2292 10.2917 18.3854 10.3646 18.5312 10.4688C18.6771 10.5729 18.7917 10.7083 18.875 10.875L20.5625 13.8125C20.8958 13.7292 21.2188 13.6458 21.5312 13.5625C21.8438 13.4792 22.1667 13.3958 22.5 13.3125V9.875C22.5 9.54167 22.625 9.25 22.875 9C23.125 8.75 23.4375 8.625 23.8125 8.625H26.75L31.875 3.4375C32.125 3.1875 32.4271 3.0625 32.7812 3.0625C33.1354 3.0625 33.4375 3.1875 33.6875 3.4375L35.6875 5.5C36.1458 5.25 36.6042 5.03125 37.0625 4.84375C37.5208 4.65625 37.9792 4.5 38.4375 4.375V1.5C38.4375 1.125 38.5625 0.8125 38.8125 0.5625C39.0625 0.3125 39.375 0.1875 39.75 0.1875H47.4375C47.8125 0.1875 48.125 0.3125 48.375 0.5625C48.625 0.8125 48.75 1.125 48.75 1.5V4.375C49.2083 4.5 49.6667 4.65625 50.125 4.84375C50.5833 5.03125 51.0208 5.25 51.4375 5.5L53.5 3.4375C53.75 3.1875 54.0521 3.0625 54.4062 3.0625C54.7604 3.0625 55.0625 3.1875 55.3125 3.4375L60.75 8.9375C61 9.1875 61.125 9.48958 61.125 9.84375C61.125 10.1979 61 10.5 60.75 10.75L58.75 12.75C58.9583 13.2083 59.1562 13.6667 59.3438 14.125C59.5312 14.5833 59.7083 15.0417 59.875 15.5H62.6875ZM52.625 38.6875V33.6875H49.4375C49.1042 33.6875 48.8229 33.5833 48.5938 33.375C48.3646 33.1667 48.2083 32.9167 48.125 32.625C48.0417 32 47.9167 31.3854 47.75 30.7812C47.5833 30.1771 47.3958 29.5833 47.1875 29C47.0625 28.7083 47.0625 28.4167 47.1875 28.125C47.3125 27.8333 47.5 27.6042 47.75 27.4375L50.5 25.875L48 21.5L45.25 23.125C44.9583 23.25 44.6562 23.2917 44.3438 23.25C44.0312 23.2083 43.7917 23.0625 43.625 22.8125C43.2083 22.3542 42.7812 21.9062 42.3438 21.4688C41.9062 21.0312 41.4583 20.6042 41 20.1875C40.75 19.9792 40.5938 19.7188 40.5312 19.4062C40.4688 19.0938 40.5208 18.8125 40.6875 18.5625L42.3125 15.8125L37.9375 13.25L36.3125 16C36.1458 16.2917 35.9167 16.4896 35.625 16.5938C35.3333 16.6979 35.0417 16.7083 34.75 16.625C34.1667 16.375 33.5833 16.1771 33 16.0312C32.4167 15.8854 31.8125 15.75 31.1875 15.625C30.8542 15.5833 30.5938 15.4375 30.4062 15.1875C30.2188 14.9375 30.125 14.6667 30.125 14.375V11.1875H25.0625V14.375C25.0625 14.6667 24.9583 14.9375 24.75 15.1875C24.5417 15.4375 24.2917 15.5833 24 15.625C23.375 15.75 22.7708 15.8854 22.1875 16.0312C21.6042 16.1771 21.0208 16.375 20.4375 16.625C20.1458 16.7083 19.8542 16.6979 19.5625 16.5938C19.2708 16.4896 19.0417 16.2917 18.875 16L17.25 13.25L12.875 15.8125L14.5 18.5625C14.6667 18.8125 14.7188 19.0938 14.6562 19.4062C14.5938 19.7188 14.4375 19.9792 14.1875 20.1875C13.7292 20.6042 13.2812 21.0312 12.8438 21.4688C12.4062 21.9062 11.9792 22.3542 11.5625 22.8125C11.3958 23.0625 11.1562 23.2083 10.8438 23.25C10.5312 23.2917 10.2292 23.25 9.9375 23.125L7.1875 21.5L4.6875 25.875L7.4375 27.4375C7.6875 27.6042 7.86458 27.8333 7.96875 28.125C8.07292 28.4167 8.08333 28.7083 8 29C7.79167 29.5833 7.60417 30.1771 7.4375 30.7812C7.27083 31.3854 7.14583 32 7.0625 32.625C6.97917 32.9167 6.82292 33.1667 6.59375 33.375C6.36458 33.5833 6.08333 33.6875 5.75 33.6875H2.5625V38.6875H5.75C6.08333 38.6875 6.36458 38.7917 6.59375 39C6.82292 39.2083 6.97917 39.4792 7.0625 39.8125C7.14583 40.3958 7.27083 40.9896 7.4375 41.5938C7.60417 42.1979 7.79167 42.7917 8 43.375C8.08333 43.6667 8.07292 43.9583 7.96875 44.25C7.86458 44.5417 7.6875 44.7708 7.4375 44.9375L4.6875 46.5L7.1875 50.875L9.9375 49.3125C10.2292 49.1458 10.5312 49.0833 10.8438 49.125C11.1562 49.1667 11.3958 49.3125 11.5625 49.5625C11.9792 50.0625 12.4062 50.5312 12.8438 50.9688C13.2812 51.4062 13.7292 51.8125 14.1875 52.1875C14.4375 52.3958 14.5938 52.6562 14.6562 52.9688C14.7188 53.2812 14.6667 53.5625 14.5 53.8125L12.875 56.625L17.25 59.125L18.875 56.375C19.0417 56.0833 19.2708 55.8854 19.5625 55.7812C19.8542 55.6771 20.1458 55.6875 20.4375 55.8125C21.0208 56.0208 21.6042 56.1979 22.1875 56.3438C22.7708 56.4896 23.375 56.625 24 56.75C24.2917 56.7917 24.5417 56.9375 24.75 57.1875C24.9583 57.4375 25.0625 57.7083 25.0625 58V61.1875H30.125V58C30.125 57.7083 30.2188 57.4375 30.4062 57.1875C30.5938 56.9375 30.8542 56.7917 31.1875 56.75C31.8125 56.625 32.4167 56.4896 33 56.3438C33.5833 56.1979 34.1667 56.0208 34.75 55.8125C35.0417 55.6875 35.3333 55.6771 35.625 55.7812C35.9167 55.8854 36.1458 56.0833 36.3125 56.375L37.9375 59.125L42.3125 56.625L40.6875 53.8125C40.5208 53.5625 40.4688 53.2812 40.5312 52.9688C40.5938 52.6562 40.75 52.3958 41 52.1875C41.4583 51.8125 41.9062 51.4062 42.3438 50.9688C42.7812 50.5312 43.2083 50.0625 43.625 49.5625C43.7917 49.3125 44.0312 49.1667 44.3438 49.125C44.6562 49.0833 44.9583 49.1458 45.25 49.3125L48 50.875L50.5 46.5L47.75 44.9375C47.5 44.7708 47.3125 44.5417 47.1875 44.25C47.0625 43.9583 47.0625 43.6667 47.1875 43.375C47.3958 42.7917 47.5833 42.1979 47.75 41.5938C47.9167 40.9896 48.0417 40.3958 48.125 39.8125C48.2083 39.4792 48.3646 39.2083 48.5938 39C48.8229 38.7917 49.1042 38.6875 49.4375 38.6875H52.625ZM61.4375 23.1875V18.0625H58.875C58.5833 18.0625 58.3229 17.9688 58.0938 17.7812C57.8646 17.5938 57.7083 17.3542 57.625 17.0625C57.4583 16.3958 57.2396 15.7396 56.9688 15.0938C56.6979 14.4479 56.375 13.8125 56 13.1875C55.875 12.9375 55.8229 12.6667 55.8438 12.375C55.8646 12.0833 55.9792 11.8333 56.1875 11.625L58 9.8125L54.375 6.1875L52.5625 8C52.3542 8.20833 52.1042 8.33333 51.8125 8.375C51.5208 8.41667 51.25 8.35417 51 8.1875C50.4167 7.8125 49.7917 7.5 49.125 7.25C48.4583 7 47.7917 6.77083 47.125 6.5625C46.8333 6.52083 46.5938 6.38542 46.4062 6.15625C46.2188 5.92708 46.125 5.64583 46.125 5.3125V2.8125H41V5.3125C41 5.64583 40.9062 5.92708 40.7188 6.15625C40.5312 6.38542 40.3125 6.52083 40.0625 6.5625C39.3542 6.77083 38.6771 7 38.0312 7.25C37.3854 7.5 36.75 7.8125 36.125 8.1875C35.875 8.35417 35.6042 8.41667 35.3125 8.375C35.0208 8.33333 34.7708 8.20833 34.5625 8L32.75 6.1875L30.375 8.625H31.375C31.75 8.625 32.0625 8.75 32.3125 9C32.5625 9.25 32.6875 9.54167 32.6875 9.875V13.3125C33.0208 13.3958 33.3438 13.4792 33.6562 13.5625C33.9688 13.6458 34.2917 13.7292 34.625 13.8125L36.3125 10.875C36.3958 10.7083 36.5104 10.5729 36.6562 10.4688C36.8021 10.3646 36.9583 10.2917 37.125 10.25C37.2917 10.2083 37.4583 10.1979 37.625 10.2188C37.7917 10.2396 37.9375 10.2917 38.0625 10.375L44.6875 14.1875C44.8542 14.2708 44.9792 14.3854 45.0625 14.5312C45.1458 14.6771 45.2292 14.8333 45.3125 15C45.3542 15.1667 45.3646 15.3333 45.3438 15.5C45.3229 15.6667 45.2708 15.8125 45.1875 15.9375L43.4375 18.9375C43.6875 19.1458 43.9271 19.375 44.1562 19.625C44.3854 19.875 44.625 20.125 44.875 20.375L47.8125 18.625C48.1458 18.4583 48.4792 18.4167 48.8125 18.5C49.1458 18.5833 49.3958 18.7917 49.5625 19.125L53.375 25.6875C53.4583 25.8542 53.5104 26.0208 53.5312 26.1875C53.5521 26.3542 53.5417 26.5208 53.5 26.6875C53.4583 26.8542 53.3854 27 53.2812 27.125C53.1771 27.25 53.0625 27.3542 52.9375 27.4375L49.9375 29.1875C50.0625 29.4792 50.1667 29.7917 50.25 30.125L50.5 31.125H53.875C54.25 31.125 54.5625 31.25 54.8125 31.5C55.0625 31.75 55.1875 32.0417 55.1875 32.375V34.25L58 31.4375L56.1875 29.625C55.9792 29.4167 55.8646 29.1667 55.8438 28.875C55.8229 28.5833 55.875 28.3125 56 28.0625C56.375 27.4375 56.6979 26.8021 56.9688 26.1562C57.2396 25.5104 57.4583 24.8542 57.625 24.1875C57.7083 23.8958 57.8646 23.6562 58.0938 23.4688C58.3229 23.2812 58.5833 23.1875 58.875 23.1875H61.4375Z" fill="white"/>
</g>
<defs>
<clipPath id="clip0_3519_364">
<rect width="64" height="64" fill="white"/>
</clipPath>
</defs>
</svg>
