<svg width="64" height="64" viewBox="0 0 64 64" fill="none" xmlns="http://www.w3.org/2000/svg">
<path d="M56.5333 2.1333H7.46667C3.34493 2.13797 0.00466667 5.47823 0 9.59997V43.7333C0.00466667 47.855 3.34493 51.1953 7.46667 51.2H24.1664L21.6064 59.7333H18.1333V61.8666H45.8667V59.7333H42.3936L39.8336 51.2H56.5333C60.6551 51.1953 63.9953 47.855 64 43.7333V9.59997C63.9953 5.47823 60.6551 2.13797 56.5333 2.1333ZM40.1664 59.7333H23.8336L26.3936 51.2H37.6064L40.1664 59.7333ZM61.8667 43.7333C61.8632 46.6773 59.4773 49.0632 56.5333 49.0666H7.46667C4.52267 49.0632 2.1368 46.6773 2.13333 43.7333V42.6666H61.8667V43.7333ZM61.8667 40.5333H2.13333V9.59997C2.1368 6.65597 4.52267 4.2701 7.46667 4.26663H56.5333C59.4773 4.2701 61.8632 6.65597 61.8667 9.59997V40.5333Z" fill="white"/>
<path d="M44.7995 17.0666H42.1328L39.2528 13.2266C39.0513 12.9581 38.7352 12.7999 38.3995 12.7999H27.7328C27.3971 12.7999 27.0809 12.9581 26.8795 13.2266L23.9237 17.1733L18.9861 18.1546C18.4895 18.2559 18.1327 18.693 18.1328 19.1999V24.5333C18.1328 25.1223 18.6104 25.5999 19.1995 25.5999H22.5957C23.1737 27.2589 24.9871 28.1351 26.6459 27.5573C27.5628 27.2378 28.2837 26.517 28.6032 25.5999H35.3957C35.9737 27.2589 37.7871 28.1351 39.4459 27.5573C40.3628 27.2378 41.0837 26.517 41.4032 25.5999H44.7995C45.3885 25.5999 45.8661 25.1223 45.8661 24.5333V18.1333C45.8661 17.5442 45.3885 17.0666 44.7995 17.0666ZM25.5995 25.5999C25.0104 25.5999 24.5328 25.1223 24.5328 24.5333C24.5328 23.9442 25.0104 23.4666 25.5995 23.4666C26.1885 23.4666 26.6661 23.9442 26.6661 24.5333C26.6661 25.1223 26.1885 25.5999 25.5995 25.5999ZM38.3995 25.5999C37.8104 25.5999 37.3328 25.1223 37.3328 24.5333C37.3328 23.9442 37.8104 23.4666 38.3995 23.4666C38.9885 23.4666 39.4661 23.9442 39.4661 24.5333C39.4661 25.1223 38.9885 25.5999 38.3995 25.5999ZM43.7328 23.4666H41.4171C41.4043 23.4303 41.3851 23.3983 41.3712 23.3599C41.3477 23.3002 41.32 23.2437 41.2933 23.1861C41.2381 23.0679 41.1757 22.9533 41.1067 22.8426C41.0747 22.7903 41.0437 22.7359 41.0075 22.6879C40.918 22.5619 40.8196 22.4426 40.7131 22.3306C40.6907 22.3071 40.6715 22.2805 40.6491 22.2581C40.5172 22.1278 40.3744 22.0089 40.2224 21.9029C40.1765 21.8773 40.1296 21.8527 40.0859 21.825C39.9699 21.7521 39.8495 21.6866 39.7253 21.6287C39.6667 21.6021 39.6069 21.5786 39.5461 21.5551C39.4209 21.5067 39.2927 21.4667 39.1621 21.4357C39.1035 21.4207 39.0469 21.4037 38.9872 21.393C38.6001 21.3137 38.2009 21.3137 37.8139 21.393C37.7541 21.4037 37.6976 21.4207 37.6389 21.4357C37.5084 21.4667 37.3801 21.5067 37.2549 21.5551C37.1941 21.5786 37.1355 21.6021 37.0768 21.6287C36.9521 21.6863 36.8313 21.7518 36.7152 21.825C36.6715 21.8527 36.6245 21.8773 36.5819 21.9061C36.4299 22.0121 36.2871 22.131 36.1552 22.2613C36.1328 22.2837 36.1136 22.3103 36.0912 22.3338C35.9847 22.4458 35.8863 22.5651 35.7968 22.6911C35.7616 22.7413 35.7296 22.7978 35.6976 22.8458C35.6285 22.9565 35.5661 23.0711 35.5109 23.1893C35.4832 23.2469 35.4565 23.3034 35.4331 23.3631C35.4192 23.3983 35.4 23.4303 35.3872 23.4698H28.6171C28.6043 23.4335 28.5851 23.4015 28.5712 23.3631C28.5477 23.3034 28.52 23.2469 28.4933 23.1893C28.4381 23.0711 28.3757 22.9565 28.3067 22.8458C28.2747 22.7935 28.2437 22.7391 28.2075 22.6911C28.118 22.5651 28.0196 22.4458 27.9131 22.3338C27.8907 22.3103 27.8715 22.2837 27.8491 22.2613C27.7172 22.131 27.5744 22.0121 27.4224 21.9061C27.3797 21.8773 27.3328 21.8527 27.2891 21.825C27.1731 21.7521 27.0527 21.6866 26.9285 21.6287C26.8699 21.6021 26.8101 21.5786 26.7493 21.5551C26.6241 21.5067 26.4959 21.4667 26.3653 21.4357C26.3067 21.4207 26.2501 21.4037 26.1904 21.393C25.8033 21.3137 25.4041 21.3137 25.0171 21.393C24.9573 21.4037 24.9008 21.4207 24.8421 21.4357C24.7116 21.4667 24.5833 21.5067 24.4581 21.5551C24.3973 21.5786 24.3387 21.6021 24.28 21.6287C24.1553 21.6863 24.0345 21.7518 23.9184 21.825C23.8747 21.8527 23.8277 21.8773 23.7851 21.9061C23.6331 22.0121 23.4903 22.131 23.3584 22.2613C23.336 22.2837 23.3168 22.3103 23.2944 22.3338C23.1879 22.4458 23.0895 22.5651 23 22.6911C22.9648 22.7413 22.9328 22.7978 22.9008 22.8458C22.8317 22.9565 22.7693 23.0711 22.7141 23.1893C22.6864 23.2469 22.6597 23.3034 22.6363 23.3631C22.6224 23.3983 22.6032 23.4303 22.5904 23.4698H20.2661V20.0735L24.7461 19.1786C25.0021 19.1271 25.2301 18.9827 25.3861 18.7733L28.2661 14.9333H37.8661L40.7461 18.7733C40.9476 19.0418 41.2637 19.1999 41.5995 19.1999H43.7328V23.4666Z" fill="white"/>
<path d="M19.9544 10.9792C19.7544 10.7792 19.4832 10.6666 19.2003 10.6666H14.9336V12.8H18.7587L21.6461 15.6874L23.1544 14.1792L19.9544 10.9792Z" fill="white"/>
<path d="M59.7326 8.53333H51.1992V10.6667H59.7326V8.53333Z" fill="white"/>
<path d="M59.7326 12.7999H51.1992V14.9333H59.7326V12.7999Z" fill="white"/>
<path d="M59.7326 19.2H51.1992V21.3333H59.7326V19.2Z" fill="white"/>
<path d="M59.7326 23.4667H51.1992V25.6H59.7326V23.4667Z" fill="white"/>
<path d="M44.8015 10.6666C44.5186 10.6666 44.2474 10.7792 44.0474 10.9792L41.9141 13.1125L43.4223 14.6208L45.2431 12.8H49.0682V10.6666H44.8015Z" fill="white"/>
<path d="M12.799 8.53333H4.26562V10.6667H12.799V8.53333Z" fill="white"/>
<path d="M12.799 12.7999H4.26562V14.9333H12.799V12.7999Z" fill="white"/>
<path d="M12.799 19.2H4.26562V21.3333H12.799V19.2Z" fill="white"/>
<path d="M12.799 23.4667H4.26562V25.6H12.799V23.4667Z" fill="white"/>
<path d="M10.6654 30.9333H6.3987C5.80963 30.9333 5.33203 31.4109 5.33203 32V36.2667C5.33203 36.8558 5.80963 37.3334 6.3987 37.3334H10.6654C11.2544 37.3334 11.732 36.8558 11.732 36.2667V32C11.732 31.4109 11.2544 30.9333 10.6654 30.9333ZM9.5987 35.2H7.46536V33.0667H9.5987V35.2Z" fill="white"/>
<path d="M23.4667 29.8666H17.0667C16.4776 29.8666 16 30.3442 16 30.9332V37.3332C16 37.9223 16.4776 38.3999 17.0667 38.3999H23.4667C24.0557 38.3999 24.5333 37.9223 24.5333 37.3332V30.9332C24.5333 30.3442 24.0557 29.8666 23.4667 29.8666ZM22.4 36.2666H18.1333V31.9999H22.4V36.2666Z" fill="white"/>
<path d="M34.1341 30.9333H29.8674C29.2784 30.9333 28.8008 31.4109 28.8008 32V36.2667C28.8008 36.8558 29.2784 37.3334 29.8674 37.3334H34.1341C34.7232 37.3334 35.2008 36.8558 35.2008 36.2667V32C35.2008 31.4109 34.7232 30.9333 34.1341 30.9333ZM33.0674 35.2H30.9341V33.0667H33.0674V35.2Z" fill="white"/>
<path d="M45.8685 30.9333H41.6018C41.0128 30.9333 40.5352 31.4109 40.5352 32V36.2667C40.5352 36.8558 41.0128 37.3334 41.6018 37.3334H45.8685C46.4576 37.3334 46.9352 36.8558 46.9352 36.2667V32C46.9352 31.4109 46.4576 30.9333 45.8685 30.9333ZM44.8018 35.2H42.6685V33.0667H44.8018V35.2Z" fill="white"/>
<path d="M57.599 30.9333H53.3323C52.7432 30.9333 52.2656 31.4109 52.2656 32V36.2667C52.2656 36.8558 52.7432 37.3334 53.3323 37.3334H57.599C58.188 37.3334 58.6656 36.8558 58.6656 36.2667V32C58.6656 31.4109 58.188 30.9333 57.599 30.9333ZM56.5323 35.2H54.399V33.0667H56.5323V35.2Z" fill="white"/>
<path d="M39.4685 8.53333H24.5352V10.6667H39.4685V8.53333Z" fill="white"/>
</svg>
