<svg width="64" height="64" viewBox="0 0 64 64" fill="none" xmlns="http://www.w3.org/2000/svg">
<g clip-path="url(#clip0_3519_340)">
<path d="M59.0625 4.9375C60.6875 6.60417 61.9167 8.47917 62.75 10.5625C63.5833 12.6458 64 14.7708 64 16.9375C64 19.1042 63.5833 21.2292 62.75 23.3125C61.9167 25.3958 60.6875 27.2708 59.0625 28.9375L52.5625 35.4375C51.6042 36.3542 50.5312 37.0521 49.3438 37.5312C48.1562 38.0104 46.9375 38.25 45.6875 38.25C44.4792 38.25 43.2708 38.0104 42.0625 37.5312C40.8542 37.0521 39.7917 36.3542 38.875 35.4375L38.75 35.3125L10.5 63.625C10.375 63.75 10.2292 63.8438 10.0625 63.9062C9.89583 63.9688 9.72917 64 9.5625 64H9.5L1.625 63.6875C1.29167 63.6875 0.989583 63.5521 0.71875 63.2812C0.447917 63.0104 0.3125 62.7083 0.3125 62.375L0 54.5C0 54.25 0.0625 54.0208 0.1875 53.8125C0.3125 53.6042 0.479167 53.4167 0.6875 53.25L3.625 51.5L5.875 48.0625C5.91667 47.9792 5.97917 47.9062 6.0625 47.8438C6.14583 47.7812 6.22917 47.7292 6.3125 47.6875L9.75 45.4375L12 41.9375C12.0417 41.8542 12.0938 41.7812 12.1562 41.7188C12.2188 41.6562 12.2917 41.6042 12.375 41.5625L15.875 39.3125L18.125 35.8125C18.1667 35.7292 18.2188 35.6562 18.2812 35.5938C18.3438 35.5312 18.4167 35.4792 18.5 35.4375L22 33.1875L24.25 29.75C24.25 29.7083 24.2708 29.6667 24.3125 29.625C24.3542 29.5833 24.375 29.5417 24.375 29.5L28.6875 25.25L28.5625 25.125C26.6875 23.25 25.75 20.9688 25.75 18.2812C25.75 15.5938 26.6875 13.3125 28.5625 11.4375L35.0625 4.9375C36.6875 3.35417 38.5312 2.13542 40.5938 1.28125C42.6562 0.427083 44.8125 0 47.0625 0C49.3125 0 51.4688 0.427083 53.5312 1.28125C55.5938 2.13542 57.4375 3.35417 59.0625 4.9375ZM5.3125 53.75L2.8125 55.25L3 61H3.3125L33.875 30.4375L30.625 27.1875L26.4375 31.3125L24.125 34.9375C24.0833 35.0208 24.0312 35.0938 23.9688 35.1562L23.75 35.375L20.25 37.5625L18 41.0625C17.9583 41.1458 17.9062 41.2188 17.8438 41.2812C17.7812 41.3438 17.7083 41.3958 17.625 41.4375L14.125 43.6875L11.9375 47.1875L11.7188 47.4062C11.7188 47.4062 11.6458 47.4583 11.5 47.5625L8 49.8125L5.8125 53.3125L5.59375 53.5312C5.59375 53.5312 5.5 53.6042 5.3125 53.75ZM9 61.1875L36.8125 33.375L35.8125 32.375L7.0625 61.125L9 61.1875ZM57.0625 27C58.4792 25.5833 59.5208 24.0208 60.1875 22.3125C60.8958 20.5625 61.25 18.7812 61.25 16.9688C61.25 15.1562 60.8958 13.375 60.1875 11.625C59.5208 9.875 58.4792 8.3125 57.0625 6.9375C55.7292 5.60417 54.1979 4.57292 52.4688 3.84375C50.7396 3.11458 48.9375 2.75 47.0625 2.75C45.1458 2.75 43.3333 3.11458 41.625 3.84375C39.9167 4.57292 38.375 5.60417 37 6.9375L30.5625 13.375C29.8958 14.0417 29.3854 14.8021 29.0312 15.6562C28.6771 16.5104 28.5 17.3958 28.5 18.3125C28.5 19.2292 28.6771 20.1042 29.0312 20.9375C29.3854 21.7708 29.8958 22.5208 30.5625 23.1875L40.8125 33.4375C42.1458 34.8125 43.7708 35.5 45.6875 35.5C47.6042 35.5 49.25 34.8125 50.625 33.4375L57.0625 27ZM54.5 9.75C55.9583 11.25 56.8646 13.0312 57.2188 15.0938C57.5729 17.1562 57.3333 19.1458 56.5 21.0625C56.4167 21.3125 56.2812 21.5 56.0938 21.625C55.9062 21.75 55.7083 21.8333 55.5 21.875C55.4583 21.9167 55.4167 21.9375 55.375 21.9375H55.25C55.0417 21.9375 54.8542 21.8958 54.6875 21.8125C54.5208 21.7292 54.375 21.625 54.25 21.5L42.5625 9.6875C42.3958 9.52083 42.2812 9.32292 42.2188 9.09375C42.1562 8.86458 42.1458 8.64583 42.1875 8.4375C42.2292 8.22917 42.3229 8.03125 42.4688 7.84375C42.6146 7.65625 42.7917 7.52083 43 7.4375C44.9583 6.60417 46.9896 6.40625 49.0938 6.84375C51.1979 7.28125 53 8.25 54.5 9.75ZM54.5625 17.875C54.6875 16.75 54.5729 15.6458 54.2188 14.5625C53.8646 13.4792 53.2917 12.5208 52.5 11.6875C51.6667 10.8125 50.6979 10.1875 49.5938 9.8125C48.4896 9.4375 47.3542 9.3125 46.1875 9.4375L54.5625 17.875Z" fill="white"/>
</g>
<defs>
<clipPath id="clip0_3519_340">
<rect width="64" height="64" fill="white"/>
</clipPath>
</defs>
</svg>
