<svg width="64" height="64" viewBox="0 0 64 64" fill="none" xmlns="http://www.w3.org/2000/svg">
<path d="M50.125 36C51.5833 36 52.8333 36.5209 53.875 37.5625C54.9167 38.6042 55.4375 39.8542 55.4375 41.3125C55.4375 42.7709 54.9167 44.0209 53.875 45.0625C52.8333 46.1042 51.5833 46.625 50.125 46.625C48.6667 46.625 47.4167 46.1042 46.375 45.0625C45.3333 44.0209 44.8125 42.7709 44.8125 41.3125C44.8125 39.8542 45.3333 38.6042 46.375 37.5625C47.4167 36.5209 48.6667 36 50.125 36ZM50.125 44.5C51 44.5 51.75 44.1875 52.375 43.5625C53 42.9375 53.3125 42.1875 53.3125 41.3125C53.3125 40.4375 53 39.6875 52.375 39.0625C51.75 38.4375 51 38.125 50.125 38.125C49.25 38.125 48.5 38.4375 47.875 39.0625C47.25 39.6875 46.9375 40.4375 46.9375 41.3125C46.9375 42.1875 47.25 42.9375 47.875 43.5625C48.5 44.1875 49.25 44.5 50.125 44.5ZM13.875 36C15.3333 36 16.5833 36.5209 17.625 37.5625C18.6667 38.6042 19.1875 39.8542 19.1875 41.3125C19.1875 42.7709 18.6667 44.0209 17.625 45.0625C16.5833 46.1042 15.3333 46.625 13.875 46.625C12.4167 46.625 11.1667 46.1042 10.125 45.0625C9.08333 44.0209 8.5625 42.7709 8.5625 41.3125C8.5625 39.8542 9.08333 38.6042 10.125 37.5625C11.1667 36.5209 12.4167 36 13.875 36ZM13.875 44.5C14.75 44.5 15.5 44.1875 16.125 43.5625C16.75 42.9375 17.0625 42.1875 17.0625 41.3125C17.0625 40.4375 16.75 39.6875 16.125 39.0625C15.5 38.4375 14.75 38.125 13.875 38.125C13 38.125 12.25 38.4375 11.625 39.0625C11 39.6875 10.6875 40.4375 10.6875 41.3125C10.6875 42.1875 11 42.9375 11.625 43.5625C12.25 44.1875 13 44.5 13.875 44.5ZM62.9375 36C63.2292 36 63.4792 36.1042 63.6875 36.3125C63.8958 36.5209 64 36.7709 64 37.0625V41.3125C64 41.6042 63.8958 41.8542 63.6875 42.0625C63.4792 42.2709 63.2292 42.375 62.9375 42.375H58.6875C58.3958 42.375 58.1458 42.2709 57.9375 42.0625C57.7292 41.8542 57.625 41.6042 57.625 41.3125C57.625 39.2709 56.8958 37.5209 55.4375 36.0625C53.9792 34.6042 52.2083 33.875 50.125 33.875C48.0833 33.875 46.3333 34.6042 44.875 36.0625C43.4167 37.5209 42.6875 39.2709 42.6875 41.3125C42.6875 41.6042 42.5833 41.8542 42.375 42.0625C42.1667 42.2709 41.9167 42.375 41.625 42.375H22.375C22.0833 42.375 21.8333 42.2709 21.625 42.0625C21.4167 41.8542 21.3125 41.6042 21.3125 41.3125C21.3125 39.2709 20.5833 37.5209 19.125 36.0625C17.6667 34.6042 15.9167 33.875 13.875 33.875C11.7917 33.875 10.0208 34.6042 8.5625 36.0625C7.10417 37.5209 6.375 39.2709 6.375 41.3125C6.375 41.6042 6.27083 41.8542 6.0625 42.0625C5.85417 42.2709 5.60417 42.375 5.3125 42.375H1.0625C0.770833 42.375 0.520833 42.2709 0.3125 42.0625C0.104167 41.8542 0 41.6042 0 41.3125V37.0625C0 36.7709 0.104167 36.5209 0.3125 36.3125C0.520833 36.1042 0.770833 36 1.0625 36V32.75C1.0625 30.75 2.58333 29.1979 5.625 28.0938C8.66667 26.9896 11.9583 26.4167 15.5 26.375C17.0417 24.5417 18.7917 22.9792 20.75 21.6875C22.7083 20.3959 24.8646 19.3959 27.2188 18.6875C29.5729 17.9792 32.1458 17.5417 34.9375 17.375C37.7292 17.25 40.7083 17.4167 43.875 17.875H43.9375C47.3542 18.4584 49.9688 19.5729 51.7812 21.2188C53.5938 22.8646 55.0625 24.6459 56.1875 26.5625L62.1875 28.5625C62.3958 28.6459 62.5729 28.7813 62.7188 28.9688C62.8646 29.1563 62.9375 29.3542 62.9375 29.5625V36ZM49.125 21.9375L49.0625 26.375H53.5625C52.9375 25.5 52.2708 24.6875 51.5625 23.9375C50.8542 23.1875 50.0417 22.5209 49.125 21.9375ZM36.25 19.5V26.375H46.9375L47 20.9375C46.5 20.7292 45.9583 20.5417 45.375 20.375C44.7917 20.2084 44.1875 20.0625 43.5625 19.9375C42.2708 19.7709 41.0208 19.6459 39.8125 19.5625C38.6042 19.4792 37.4167 19.4584 36.25 19.5ZM34.125 19.5625C30.8333 19.8125 27.875 20.5 25.25 21.625C22.625 22.75 20.3333 24.3334 18.375 26.375H34.125V19.5625ZM61.875 40.25V38.125C61.5833 38.125 61.3333 38.0209 61.125 37.8125C60.9167 37.6042 60.8125 37.3542 60.8125 37.0625V33.875H59.75C59.4583 33.875 59.2083 33.7709 59 33.5625C58.7917 33.3542 58.6875 33.0834 58.6875 32.75C58.6875 32.4584 58.7917 32.2084 59 32C59.2083 31.7917 59.4583 31.6875 59.75 31.6875H60.8125V30.375L55.3125 28.5H16C12.7917 28.5 10.125 28.8438 8 29.5313C5.875 30.2188 4.4375 30.9375 3.6875 31.6875H4.25C4.54167 31.6875 4.79167 31.7917 5 32C5.20833 32.2084 5.3125 32.4584 5.3125 32.75C5.3125 33.0834 5.20833 33.3542 5 33.5625C4.79167 33.7709 4.54167 33.875 4.25 33.875H3.1875V37.0625C3.1875 37.3542 3.08333 37.6042 2.875 37.8125C2.66667 38.0209 2.41667 38.125 2.125 38.125V40.25H4.3125C4.60417 37.8334 5.65625 35.8021 7.46875 34.1563C9.28125 32.5104 11.4167 31.6875 13.875 31.6875C16.3333 31.6875 18.4688 32.5104 20.2812 34.1563C22.0938 35.8021 23.1458 37.8334 23.4375 40.25H40.5625C40.8542 37.8334 41.9062 35.8021 43.7188 34.1563C45.5312 32.5104 47.6667 31.6875 50.125 31.6875C52.5833 31.6875 54.7188 32.5104 56.5312 34.1563C58.3438 35.8021 59.3958 37.8334 59.6875 40.25H61.875Z" fill="white"/>
</svg>
