<svg width="64" height="64" viewBox="0 0 64 64" fill="none" xmlns="http://www.w3.org/2000/svg">
<path d="M63.3106 28.4375C63.7273 30.3542 63.9564 32.2708 63.9981 34.1875C64.0398 36.1042 63.8939 37.9896 63.5606 39.8438C63.2273 41.6979 62.7273 43.5208 62.0606 45.3125C61.3523 47.1042 60.4773 48.8125 59.4356 50.4375C58.0606 52.6458 56.4356 54.5833 54.5606 56.25C52.7273 57.9583 50.7481 59.3854 48.6231 60.5312C46.4981 61.6771 44.2481 62.5417 41.8731 63.125C39.5398 63.7083 37.1648 64 34.7481 64C32.0814 64 29.4148 63.625 26.7481 62.875C24.0814 62.125 21.5398 60.9792 19.1231 59.4375C17.1648 58.1875 15.4148 56.75 13.8731 55.125C12.2898 53.5 10.9148 51.7292 9.74811 49.8125C8.58144 47.8958 7.66478 45.8542 6.99811 43.6875C6.28978 41.5208 5.85228 39.2917 5.68561 37C5.43561 37 5.19603 36.9688 4.96686 36.9062C4.73769 36.8438 4.51894 36.7708 4.31061 36.6875C3.26894 36.3542 2.41478 35.7604 1.74811 34.9062C1.08144 34.0521 0.706443 33.1042 0.62311 32.0625L0.0606099 26.75C-0.106057 25.2917 0.0501932 23.875 0.52936 22.5C1.00853 21.125 1.76894 19.9375 2.81061 18.9375L18.8731 2.8125C19.9148 1.8125 21.1231 1.0625 22.4981 0.5625C23.8731 0.0625 25.2898 -0.104167 26.7481 0.0625L31.9981 0.625C33.0814 0.75 34.0502 1.13542 34.9044 1.78125C35.7585 2.42708 36.3523 3.27083 36.6856 4.3125C36.7689 4.52083 36.8419 4.75 36.9044 5C36.9669 5.25 36.9981 5.47917 36.9981 5.6875C39.3731 5.85417 41.7064 6.32292 43.9981 7.09375C46.2898 7.86458 48.4356 8.89583 50.4356 10.1875C52.1023 11.2292 53.6231 12.4167 54.9981 13.75C56.3731 15.0417 57.6023 16.4688 58.6856 18.0312C59.7689 19.5938 60.7064 21.25 61.4981 23C62.2481 24.75 62.8523 26.5625 63.3106 28.4375ZM12.6856 32.8125C12.4773 34.7708 12.5502 36.7188 12.9044 38.6562C13.2585 40.5938 13.8523 42.4583 14.6856 44.25C15.5606 46.1667 16.696 47.9167 18.0919 49.5C19.4877 51.0833 21.0814 52.4375 22.8731 53.5625C25.3731 55.1458 28.071 56.1875 30.9669 56.6875C33.8627 57.1875 36.7481 57.125 39.6231 56.5C42.5398 55.8333 45.196 54.6667 47.5919 53C49.9877 51.3333 51.9773 49.25 53.5606 46.75C55.1856 44.1667 56.2273 41.4167 56.6856 38.5C57.1439 35.5833 57.071 32.7396 56.4669 29.9688C55.8627 27.1979 54.7273 24.6042 53.0606 22.1875C51.4356 19.7292 49.3106 17.6875 46.6856 16.0625C44.6023 14.7292 42.3835 13.7708 40.0294 13.1875C37.6752 12.6042 35.2689 12.4375 32.8106 12.6875L27.0606 18.4375C27.0606 18.4792 27.071 18.5104 27.0919 18.5312L27.1856 18.625C27.3523 18.9583 27.3835 19.3021 27.2794 19.6562C27.1752 20.0104 26.9773 20.2708 26.6856 20.4375C26.5606 20.4792 26.446 20.5208 26.3419 20.5625C26.2377 20.6042 26.1231 20.625 25.9981 20.625C25.8731 20.625 25.7377 20.5938 25.5919 20.5312C25.446 20.4688 25.3106 20.3958 25.1856 20.3125L20.9981 24.5C21.0814 24.7083 21.1231 24.9375 21.1231 25.1875C21.1231 25.4375 21.0606 25.6667 20.9356 25.875C20.8106 26.0417 20.6439 26.1875 20.4356 26.3125C20.2273 26.4375 20.0189 26.5 19.8106 26.5C19.6856 26.5 19.571 26.4792 19.4669 26.4375C19.3627 26.3958 19.2689 26.3542 19.1856 26.3125L12.6856 32.8125ZM3.24811 31.75C3.33144 32.3333 3.53978 32.8438 3.87311 33.2812C4.20644 33.7188 4.64394 34.0208 5.18561 34.1875C5.72728 34.3958 6.26894 34.4375 6.81061 34.3125C7.35228 34.1875 7.83144 33.9167 8.24811 33.5L33.4981 8.25C33.9148 7.83333 34.1856 7.35417 34.3106 6.8125C34.4356 6.27083 34.3939 5.72917 34.1856 5.1875C34.0189 4.64583 33.7169 4.20833 33.2794 3.875C32.8419 3.54167 32.3314 3.33333 31.7481 3.25L26.4356 2.6875C25.3939 2.60417 24.3731 2.73958 23.3731 3.09375C22.3731 3.44792 21.4981 4 20.7481 4.75L4.68561 20.8125C3.93561 21.5625 3.39394 22.4271 3.06061 23.4062C2.72728 24.3854 2.60228 25.3958 2.68561 26.4375L3.24811 31.75ZM57.1856 49.0625C58.1439 47.5625 58.9356 46 59.5606 44.375C60.1856 42.75 60.6439 41.0938 60.9356 39.4062C61.2273 37.7188 61.3523 36 61.3106 34.25C61.2689 32.5 61.0606 30.7708 60.6856 29.0625C60.3106 27.3125 59.7689 25.6458 59.0606 24.0625C58.3523 22.4792 57.5085 20.9792 56.5294 19.5625C55.5502 18.1458 54.4356 16.8333 53.1856 15.625C51.8939 14.4167 50.4981 13.3542 48.9981 12.4375C47.1231 11.2292 45.1335 10.2812 43.0294 9.59375C40.9252 8.90625 38.7689 8.47917 36.5606 8.3125C36.4773 8.60417 36.3419 8.88542 36.1544 9.15625C35.9669 9.42708 35.7689 9.6875 35.5606 9.9375C37.7689 10.0208 39.946 10.3854 42.0919 11.0312C44.2377 11.6771 46.2481 12.6042 48.1231 13.8125C51.0398 15.6458 53.4148 17.9167 55.2481 20.625C57.1231 23.375 58.4044 26.3021 59.0919 29.4062C59.7794 32.5104 59.8523 35.6875 59.3106 38.9375C58.8106 42.1875 57.6439 45.25 55.8106 48.125C54.0189 50.9583 51.7794 53.3125 49.0919 55.1875C46.4044 57.0625 43.4356 58.3542 40.1856 59.0625C39.3106 59.2708 38.4148 59.4271 37.4981 59.5312C36.5814 59.6354 35.6648 59.6875 34.7481 59.6875C32.4148 59.6875 30.1231 59.3646 27.8731 58.7188C25.6231 58.0729 23.4773 57.1042 21.4356 55.8125C19.4356 54.5208 17.6648 53 16.1231 51.25C14.5814 49.5 13.2898 47.5417 12.2481 45.375C11.5398 43.8333 10.9877 42.2396 10.5919 40.5938C10.196 38.9479 9.97728 37.2708 9.93561 35.5625C9.68561 35.7708 9.42519 35.9688 9.15436 36.1562C8.88353 36.3438 8.60228 36.5 8.31061 36.625C8.47728 38.7083 8.87311 40.75 9.49811 42.75C10.1231 44.7083 10.9564 46.5729 11.9981 48.3438C13.0398 50.1146 14.2898 51.75 15.7481 53.25C17.1648 54.75 18.7689 56.0625 20.5606 57.1875C22.7689 58.6042 25.0814 59.6458 27.4981 60.3125C29.9148 60.9792 32.3314 61.3125 34.7481 61.3125C36.9564 61.3125 39.1231 61.0417 41.2481 60.5C43.3731 60 45.4044 59.2292 47.3419 58.1875C49.2794 57.1458 51.1023 55.8542 52.8106 54.3125C54.4773 52.7708 55.9356 51.0208 57.1856 49.0625ZM27.6231 46.0625C26.0814 45.1042 24.8106 43.875 23.8106 42.375C22.8106 40.9167 22.1231 39.3542 21.7481 37.6875C21.3731 36.0208 21.3314 34.3125 21.6231 32.5625C21.9148 30.8542 22.5398 29.2083 23.4981 27.625C24.4981 26.0833 25.7273 24.8125 27.1856 23.8125C28.6439 22.8125 30.2064 22.125 31.8731 21.75C33.5398 21.375 35.2481 21.3333 36.9981 21.625C38.7481 21.9167 40.3939 22.5625 41.9356 23.5625C43.4773 24.5208 44.7481 25.7188 45.7481 27.1562C46.7481 28.5938 47.4356 30.1667 47.8106 31.875C48.2273 33.625 48.2794 35.3646 47.9669 37.0938C47.6544 38.8229 47.0189 40.4583 46.0606 42C45.1023 43.5 43.9044 44.75 42.4669 45.75C41.0294 46.75 39.4356 47.4375 37.6856 47.8125C37.2273 47.9375 36.7481 48.0312 36.2481 48.0938C35.7481 48.1562 35.2481 48.1875 34.7481 48.1875C33.4981 48.1875 32.2689 48.0104 31.0606 47.6562C29.8523 47.3021 28.7064 46.7708 27.6231 46.0625ZM25.7481 29.0625C24.1648 31.5625 23.696 34.25 24.3419 37.125C24.9877 40 26.5606 42.2292 29.0606 43.8125C30.2689 44.6042 31.571 45.1146 32.9669 45.3438C34.3627 45.5729 35.7481 45.5417 37.1231 45.25C38.4981 44.9167 39.7689 44.3542 40.9356 43.5625C42.1023 42.7708 43.0606 41.7708 43.8106 40.5625C44.6023 39.3542 45.1127 38.0521 45.3419 36.6562C45.571 35.2604 45.5398 33.875 45.2481 32.5C44.9148 31.0833 44.3419 29.8021 43.5294 28.6562C42.7169 27.5104 41.7273 26.5417 40.5606 25.75C39.6439 25.2083 38.7064 24.8021 37.7481 24.5312C36.7898 24.2604 35.8106 24.125 34.8106 24.125C33.0606 24.125 31.3731 24.5521 29.7481 25.4062C28.1231 26.2604 26.7898 27.4792 25.7481 29.0625ZM51.2481 41.875C50.8731 41.75 50.6127 41.5208 50.4669 41.1875C50.321 40.8542 50.3106 40.5208 50.4356 40.1875C50.5189 39.8542 50.7273 39.6042 51.0606 39.4375C51.3939 39.2708 51.7481 39.25 52.1231 39.375C52.4564 39.5 52.7064 39.7188 52.8731 40.0312C53.0398 40.3438 53.0606 40.6875 52.9356 41.0625C52.8523 41.3125 52.6856 41.5208 52.4356 41.6875C52.1856 41.8542 51.9356 41.9375 51.6856 41.9375H51.4356C51.4356 41.9375 51.3731 41.9167 51.2481 41.875ZM49.1856 25.5625C48.9773 25.5625 48.7794 25.5104 48.5919 25.4062C48.4044 25.3021 48.2273 25.1667 48.0606 25C47.8523 24.7083 47.7794 24.3854 47.8419 24.0312C47.9044 23.6771 48.0814 23.375 48.3731 23.125C48.6648 22.9167 48.9981 22.8438 49.3731 22.9062C49.7481 22.9688 50.0398 23.1458 50.2481 23.4375C50.4564 23.7292 50.5294 24.0521 50.4669 24.4062C50.4044 24.7604 50.2273 25.0625 49.9356 25.3125C49.8106 25.3958 49.6856 25.4583 49.5606 25.5C49.4356 25.5417 49.3106 25.5625 49.1856 25.5625ZM52.4356 33.4375C52.1023 33.4375 51.8106 33.3333 51.5606 33.125C51.3106 32.9167 51.1648 32.6458 51.1231 32.3125C51.0814 31.9375 51.1648 31.6042 51.3731 31.3125C51.5814 31.0208 51.8731 30.8542 52.2481 30.8125C52.5814 30.7292 52.9044 30.8021 53.2169 31.0312C53.5294 31.2604 53.7064 31.5625 53.7481 31.9375C53.7898 32.2708 53.7064 32.5833 53.4981 32.875C53.2898 33.1667 52.9981 33.3542 52.6231 33.4375H52.4356ZM31.3731 50.9375C31.7064 51.0208 31.9773 51.2188 32.1856 51.5312C32.3939 51.8438 32.4564 52.1875 32.3731 52.5625C32.2898 52.8542 32.1231 53.0938 31.8731 53.2812C31.6231 53.4688 31.3523 53.5625 31.0606 53.5625H30.8106C30.4356 53.4792 30.1439 53.2812 29.9356 52.9688C29.7273 52.6562 29.6648 52.3333 29.7481 52C29.8314 51.625 30.0294 51.3333 30.3419 51.125C30.6544 50.9167 30.9981 50.8542 31.3731 50.9375ZM39.2481 50.6875C39.5814 50.6042 39.9148 50.6562 40.2481 50.8438C40.5814 51.0312 40.7898 51.2917 40.8731 51.625C40.9981 52 40.9669 52.3438 40.7794 52.6562C40.5919 52.9688 40.3106 53.1667 39.9356 53.25C39.8939 53.2917 39.8419 53.3125 39.7794 53.3125H39.6231C39.3314 53.3125 39.0606 53.2292 38.8106 53.0625C38.5606 52.8958 38.3939 52.6667 38.3106 52.375C38.2273 52 38.2689 51.6562 38.4356 51.3438C38.6023 51.0312 38.8731 50.8125 39.2481 50.6875ZM46.1231 46.8125C46.3731 46.5625 46.6856 46.4479 47.0606 46.4688C47.4356 46.4896 47.7481 46.625 47.9981 46.875C48.2481 47.125 48.3731 47.4375 48.3731 47.8125C48.3731 48.1875 48.2273 48.5 47.9356 48.75C47.8106 48.875 47.6752 48.9688 47.5294 49.0312C47.3835 49.0938 47.2273 49.125 47.0606 49.125C46.8523 49.125 46.6648 49.0938 46.4981 49.0312C46.3314 48.9688 46.1856 48.8542 46.0606 48.6875C45.8106 48.4375 45.696 48.125 45.7169 47.75C45.7377 47.375 45.8731 47.0625 46.1231 46.8125ZM24.2481 47.5C24.5398 47.75 24.696 48.0521 24.7169 48.4062C24.7377 48.7604 24.6439 49.0833 24.4356 49.375C24.2689 49.5417 24.1023 49.6667 23.9356 49.75C23.7689 49.8333 23.5814 49.875 23.3731 49.875C23.2481 49.875 23.1127 49.8438 22.9669 49.7812C22.821 49.7188 22.6856 49.6458 22.5606 49.5625C22.2689 49.3125 22.1023 49.0104 22.0606 48.6562C22.0189 48.3021 22.1231 47.9792 22.3731 47.6875C22.5814 47.3958 22.8731 47.2292 23.2481 47.1875C23.6231 47.1458 23.9564 47.25 24.2481 47.5ZM41.9981 19.9375C41.6648 19.7708 41.4356 19.5208 41.3106 19.1875C41.1856 18.8542 41.2064 18.5208 41.3731 18.1875C41.5398 17.8542 41.8002 17.625 42.1544 17.5C42.5085 17.375 42.8523 17.3958 43.1856 17.5625C43.5189 17.7292 43.7481 17.9896 43.8731 18.3438C43.9981 18.6979 43.9773 19.0417 43.8106 19.375C43.6856 19.5833 43.5085 19.7604 43.2794 19.9062C43.0502 20.0521 42.8314 20.125 42.6231 20.125C42.4981 20.125 42.3939 20.1042 42.3106 20.0625C42.2273 20.0208 42.1231 19.9792 41.9981 19.9375ZM17.8106 40.4375C18.1439 40.2708 18.4773 40.2604 18.8106 40.4062C19.1439 40.5521 19.3939 40.7917 19.5606 41.125C19.6856 41.4583 19.6752 41.8021 19.5294 42.1562C19.3835 42.5104 19.1439 42.75 18.8106 42.875C18.7273 42.9167 18.6439 42.9479 18.5606 42.9688C18.4773 42.9896 18.3939 43 18.3106 43C18.0606 43 17.821 42.9271 17.5919 42.7812C17.3627 42.6354 17.2064 42.4375 17.1231 42.1875C16.9564 41.8125 16.946 41.4583 17.0919 41.125C17.2377 40.7917 17.4773 40.5625 17.8106 40.4375ZM16.8731 34.5625C16.5398 34.5208 16.2481 34.3542 15.9981 34.0625C15.7481 33.7708 15.6439 33.4583 15.6856 33.125C15.7273 32.75 15.8835 32.4375 16.1544 32.1875C16.4252 31.9375 16.7481 31.8333 17.1231 31.875C17.4981 31.9167 17.8002 32.0833 18.0294 32.375C18.2585 32.6667 18.3731 32.9792 18.3731 33.3125C18.3314 33.6875 18.1856 33.9896 17.9356 34.2188C17.6856 34.4479 17.3731 34.5625 16.9981 34.5625H16.8731ZM34.2481 18.3125C33.8731 18.3125 33.5606 18.1875 33.3106 17.9375C33.0606 17.6875 32.9148 17.375 32.8731 17C32.8731 16.625 32.9981 16.3125 33.2481 16.0625C33.4981 15.8125 33.8106 15.6667 34.1856 15.625C34.5606 15.625 34.8835 15.75 35.1544 16C35.4252 16.25 35.5606 16.5625 35.5606 16.9375C35.5606 17.3125 35.4356 17.6354 35.1856 17.9062C34.9356 18.1771 34.6231 18.3125 34.2481 18.3125ZM29.8731 42.5C27.7481 41.1667 26.4148 39.2604 25.8731 36.7812C25.3314 34.3021 25.7273 32 27.0606 29.875C28.4356 27.75 30.3523 26.4167 32.8106 25.875C35.2689 25.3333 37.5606 25.7292 39.6856 27.0625C40.7273 27.7292 41.5919 28.5521 42.2794 29.5312C42.9669 30.5104 43.4564 31.6042 43.7481 32.8125C43.9981 34.0208 44.0189 35.2188 43.8106 36.4062C43.6023 37.5938 43.1648 38.6875 42.4981 39.6875C41.8731 40.7292 41.0606 41.5938 40.0606 42.2812C39.0606 42.9688 37.9773 43.4583 36.8106 43.75C36.4773 43.8333 36.1335 43.8854 35.7794 43.9062C35.4252 43.9271 35.0814 43.9375 34.7481 43.9375C33.9148 43.9375 33.0814 43.8229 32.2481 43.5938C31.4148 43.3646 30.6231 43 29.8731 42.5ZM29.3106 31.3125C28.3523 32.8125 28.071 34.4375 28.4669 36.1875C28.8627 37.9375 29.8106 39.2917 31.3106 40.25C32.0606 40.75 32.8523 41.0729 33.6856 41.2188C34.5189 41.3646 35.3523 41.3333 36.1856 41.125C37.0606 40.9583 37.8419 40.625 38.5294 40.125C39.2169 39.625 39.7898 39.0208 40.2481 38.3125C40.7064 37.5625 41.0189 36.7708 41.1856 35.9375C41.3523 35.1042 41.3314 34.25 41.1231 33.375C40.9564 32.5417 40.6231 31.7708 40.1231 31.0625C39.6231 30.3542 38.9981 29.7708 38.2481 29.3125C37.7481 28.9792 37.196 28.7292 36.5919 28.5625C35.9877 28.3958 35.3939 28.3125 34.8106 28.3125C33.7273 28.3125 32.696 28.5729 31.7169 29.0938C30.7377 29.6146 29.9356 30.3542 29.3106 31.3125ZM9.93561 27.125C9.47728 27.125 9.03978 27.0312 8.62311 26.8438C8.20644 26.6562 7.83144 26.4167 7.49811 26.125C7.16478 25.7917 6.91478 25.4167 6.74811 25C6.58144 24.5833 6.49811 24.1458 6.49811 23.6875C6.49811 23.2292 6.58144 22.7917 6.74811 22.375C6.91478 21.9583 7.16478 21.5833 7.49811 21.25C7.83144 20.9167 8.20644 20.6667 8.62311 20.5C9.03978 20.3333 9.47728 20.25 9.93561 20.25C10.3939 20.25 10.8314 20.3333 11.2481 20.5C11.6648 20.6667 12.0398 20.9167 12.3731 21.25C12.7064 21.5833 12.9564 21.9583 13.1231 22.375C13.2898 22.7917 13.3731 23.2292 13.3731 23.6875C13.3731 24.1458 13.2898 24.5833 13.1231 25C12.9564 25.4167 12.7064 25.7917 12.3731 26.125C12.0398 26.4167 11.6648 26.6562 11.2481 26.8438C10.8314 27.0312 10.3939 27.125 9.93561 27.125ZM9.37311 23.125L9.24811 23.375C9.24811 23.375 9.22728 23.4792 9.18561 23.6875C9.18561 23.7708 9.20644 23.8646 9.24811 23.9688C9.28978 24.0729 9.33144 24.1667 9.37311 24.25C9.45644 24.2917 9.55019 24.3333 9.65436 24.375C9.75853 24.4167 9.85228 24.4375 9.93561 24.4375C10.0606 24.4375 10.1648 24.4167 10.2481 24.375L10.4981 24.25C10.5814 24.1667 10.6439 24.0729 10.6856 23.9688C10.7273 23.8646 10.7481 23.7708 10.7481 23.6875C10.7481 23.5625 10.7273 23.4583 10.6856 23.375C10.6439 23.2917 10.5814 23.2083 10.4981 23.125C10.4148 23.0417 10.3314 22.9792 10.2481 22.9375C10.1648 22.8958 10.0606 22.875 9.93561 22.875C9.85228 22.875 9.75853 22.8958 9.65436 22.9375C9.55019 22.9792 9.45644 23.0417 9.37311 23.125ZM23.6856 13.375C23.2273 13.375 22.7794 13.2917 22.3419 13.125C21.9044 12.9583 21.5398 12.7083 21.2481 12.375C20.9148 12.0417 20.6648 11.6667 20.4981 11.25C20.3314 10.8333 20.2481 10.3958 20.2481 9.9375C20.2481 9.47917 20.3314 9.04167 20.4981 8.625C20.6648 8.20833 20.9148 7.83333 21.2481 7.5C21.5398 7.20833 21.9044 6.96875 22.3419 6.78125C22.7794 6.59375 23.2273 6.5 23.6856 6.5C24.1439 6.5 24.5814 6.59375 24.9981 6.78125C25.4148 6.96875 25.7898 7.20833 26.1231 7.5C26.4148 7.83333 26.6544 8.20833 26.8419 8.625C27.0294 9.04167 27.1231 9.47917 27.1231 9.9375C27.1231 10.3958 27.0294 10.8333 26.8419 11.25C26.6544 11.6667 26.4148 12.0417 26.1231 12.375C25.7898 12.7083 25.4148 12.9583 24.9981 13.125C24.5814 13.2917 24.1439 13.375 23.6856 13.375ZM23.1231 9.4375C23.0398 9.47917 22.9773 9.55208 22.9356 9.65625C22.8939 9.76042 22.8731 9.85417 22.8731 9.9375C22.8731 10.0625 22.8939 10.1667 22.9356 10.25C22.9773 10.3333 23.0398 10.4167 23.1231 10.5C23.2064 10.5833 23.2898 10.6458 23.3731 10.6875C23.4564 10.7292 23.5606 10.75 23.6856 10.75C23.7689 10.75 23.8627 10.7292 23.9669 10.6875C24.071 10.6458 24.1439 10.5833 24.1856 10.5C24.2689 10.4167 24.3314 10.3333 24.3731 10.25C24.4148 10.1667 24.4356 10.0625 24.4356 9.9375C24.4356 9.85417 24.4148 9.76042 24.3731 9.65625C24.3314 9.55208 24.2689 9.47917 24.1856 9.4375C24.1439 9.35417 24.071 9.29167 23.9669 9.25C23.8627 9.20833 23.7689 9.1875 23.6856 9.1875C23.5606 9.1875 23.4564 9.20833 23.3731 9.25C23.2898 9.29167 23.2064 9.35417 23.1231 9.4375Z" fill="white"/>
</svg>
