<svg width="64" height="64" viewBox="0 0 64 64" fill="none" xmlns="http://www.w3.org/2000/svg">
<path d="M57.3125 22.875C59.1458 22.875 60.7188 23.5208 62.0312 24.8125C63.3438 26.1042 64 27.6875 64 29.5625V41.9375C64 43.7708 63.3438 45.3438 62.0312 46.6562C60.7188 47.9688 59.1458 48.625 57.3125 48.625C56.9792 48.625 56.6875 48.5 56.4375 48.25C56.1875 48 56.0625 47.7083 56.0625 47.375V39.8125H53.4375V53.3125C53.4375 53.6458 53.3125 53.9375 53.0625 54.1875C52.8125 54.4375 52.5208 54.5625 52.1875 54.5625H23.125C22.9583 54.5625 22.7812 54.5208 22.5938 54.4375C22.4062 54.3542 22.25 54.2292 22.125 54.0625L17.3125 47.8125H6.6875C6.3125 47.8125 6.01042 47.6875 5.78125 47.4375C5.55208 47.1875 5.4375 46.8958 5.4375 46.5625V39.8125H2.5625V48.9375C2.5625 49.2708 2.4375 49.5625 2.1875 49.8125C1.9375 50.0625 1.625 50.1875 1.25 50.1875C0.916667 50.1875 0.625 50.0625 0.375 49.8125C0.125 49.5625 0 49.2708 0 48.9375V22.5625C0 22.2292 0.125 21.9375 0.375 21.6875C0.625 21.4375 0.916667 21.3125 1.25 21.3125C1.625 21.3125 1.9375 21.4375 2.1875 21.6875C2.4375 21.9375 2.5625 22.2292 2.5625 22.5625V31.6875H5.4375V25.3125C5.4375 24.9375 5.55208 24.6354 5.78125 24.4062C6.01042 24.1771 6.3125 24.0625 6.6875 24.0625H11.6875L13.8125 20.125C13.8958 19.9167 14.0417 19.75 14.25 19.625C14.4583 19.5 14.6875 19.4375 14.9375 19.4375H28.0625V16.25H22.375C22 16.25 21.6979 16.125 21.4688 15.875C21.2396 15.625 21.125 15.3125 21.125 14.9375V10.6875C21.125 10.3542 21.2396 10.0625 21.4688 9.8125C21.6979 9.5625 22 9.4375 22.375 9.4375H40.625C40.9583 9.4375 41.25 9.5625 41.5 9.8125C41.75 10.0625 41.875 10.3542 41.875 10.6875V14.9375C41.875 15.3125 41.75 15.625 41.5 15.875C41.25 16.125 40.9583 16.25 40.625 16.25H34.9375V19.4375H43.9375C44.2292 19.4375 44.4896 19.5208 44.7188 19.6875C44.9479 19.8542 45.1042 20.0833 45.1875 20.375L46.25 24.0625H52.1875C52.5208 24.0625 52.8125 24.1771 53.0625 24.4062C53.3125 24.6354 53.4375 24.9375 53.4375 25.3125V31.6875H56.0625V24.125C56.0625 23.7917 56.1875 23.5 56.4375 23.25C56.6875 23 56.9792 22.875 57.3125 22.875ZM2.5625 37.25H5.4375V34.25H2.5625V37.25ZM23.625 12V13.6875H39.3125V12H23.625ZM30.5625 16.25V19.4375H32.375V16.25H30.5625ZM7.9375 26.5625V45.25H8.875V26.5625H7.9375ZM18.9375 45.75L23.75 52H47.625V26.5625H45.3125C45.0208 26.5625 44.7708 26.4792 44.5625 26.3125C44.3542 26.1458 44.2083 25.9375 44.125 25.6875L43 22H15.6875L13.5625 25.9375C13.4375 26.1458 13.2708 26.3021 13.0625 26.4062C12.8542 26.5104 12.6458 26.5625 12.4375 26.5625H11.4375V45.25H17.9375C18.1042 45.25 18.2812 45.2917 18.4688 45.375C18.6562 45.4583 18.8125 45.5833 18.9375 45.75ZM50.875 52V26.5625H50.125V52H50.875ZM53.4375 37.25H56.0625V34.25H53.4375V37.25ZM61.4375 41.9375V29.5625C61.4375 28.6458 61.1667 27.8229 60.625 27.0938C60.0833 26.3646 59.3958 25.875 58.5625 25.625V45.875C59.3958 45.625 60.0833 45.1354 60.625 44.4062C61.1667 43.6771 61.4375 42.8542 61.4375 41.9375Z" fill="white"/>
</svg>
