<svg width="64" height="64" viewBox="0 0 64 64" fill="none" xmlns="http://www.w3.org/2000/svg">
<g clip-path="url(#clip0_3519_352)">
<path d="M57.875 26.625L61 29.75C61.75 30.5 62.3021 31.3958 62.6562 32.4375C63.0104 33.4792 63.1042 34.5208 62.9375 35.5625L61.875 43.125C61.75 44.0833 61.4479 44.9688 60.9688 45.7812C60.4896 46.5938 59.8958 47.3125 59.1875 47.9375V51.3125C59.1875 52.3542 58.8229 53.2396 58.0938 53.9688C57.3646 54.6979 56.5 55.0625 55.5 55.0625H49.375C48.3333 55.0625 47.4583 54.6979 46.75 53.9688C46.0417 53.2396 45.6875 52.3542 45.6875 51.3125V49.6875H18.3125V51.3125C18.3125 52.3542 17.9583 53.2396 17.25 53.9688C16.5417 54.6979 15.6667 55.0625 14.625 55.0625H8.5C7.5 55.0625 6.63542 54.6979 5.90625 53.9688C5.17708 53.2396 4.8125 52.3542 4.8125 51.3125V47.9375C4.10417 47.3125 3.51042 46.5938 3.03125 45.7812C2.55208 44.9688 2.25 44.0833 2.125 43.125L1.0625 35.5625C0.895833 34.5208 0.989583 33.4792 1.34375 32.4375C1.69792 31.3958 2.25 30.5 3 29.75L6.125 26.625L2.875 26.25C2.04167 26.125 1.35417 25.7604 0.8125 25.1562C0.270833 24.5521 0 23.8333 0 23C0 22.125 0.3125 21.3646 0.9375 20.7188C1.5625 20.0729 2.33333 19.75 3.25 19.75H5.5C6.20833 19.75 6.83333 19.9479 7.375 20.3438C7.91667 20.7396 8.3125 21.25 8.5625 21.875L11.75 14.9375C12.3333 13.6458 13.1771 12.5417 14.2812 11.625C15.3854 10.7083 16.6458 10.0833 18.0625 9.75C19.2292 9.5 21.125 9.3125 23.75 9.1875C26.3333 9.02083 29.0833 8.9375 32 8.9375C34.9167 8.9375 37.6667 9.02083 40.25 9.1875C42.875 9.3125 44.7708 9.5 45.9375 9.75C47.3542 10.0833 48.6146 10.7083 49.7188 11.625C50.8229 12.5417 51.6667 13.6458 52.25 14.9375L55.4375 21.875C55.6875 21.25 56.0833 20.7396 56.625 20.3438C57.1667 19.9479 57.7917 19.75 58.5 19.75H60.75C61.6667 19.75 62.4375 20.0729 63.0625 20.7188C63.6875 21.3646 64 22.125 64 23C64 23.8333 63.7292 24.5521 63.1875 25.1562C62.6458 25.7604 61.9583 26.125 61.125 26.25L57.875 26.625ZM54.3125 47.25C55.5625 47.25 56.6667 46.8542 57.625 46.0625C58.5833 45.2708 59.1875 44.2708 59.4375 43.0625H4.5625C4.8125 44.2708 5.41667 45.2708 6.375 46.0625C7.33333 46.8542 8.4375 47.25 9.6875 47.25H54.3125ZM46.4375 36.625H44.75L45.9375 40.625H47.6875L46.4375 36.625ZM42.1875 36.625H21.8125L20.625 40.625H43.375L42.1875 36.625ZM18.0625 40.625L19.25 36.625H17.5625L16.3125 40.625H18.0625ZM13.75 40.625L15 36.625H3.6875L4.25 40.625H13.75ZM50.25 40.625H59.75L60.3125 36.625H49L50.25 40.625ZM57.6875 23V24.1875L60.875 23.8125C61.0417 23.7708 61.1979 23.6771 61.3438 23.5312C61.4896 23.3854 61.5625 23.2083 61.5625 23C61.5625 22.7917 61.4792 22.6146 61.3125 22.4688C61.1458 22.3229 60.9583 22.25 60.75 22.25H58.5C58.2917 22.25 58.1042 22.3229 57.9375 22.4688C57.7708 22.6146 57.6875 22.7917 57.6875 23ZM18.625 12.1875C18.0833 12.2708 17.5729 12.4375 17.0938 12.6875C16.6146 12.9375 16.1667 13.2292 15.75 13.5625C17.2083 13.3125 19.4583 13.125 22.5 13C25.5 12.875 28.6667 12.8125 32 12.8125C35.3333 12.8125 38.5 12.875 41.5 13C44.5417 13.125 46.7917 13.3125 48.25 13.5625C47.8333 13.2292 47.3854 12.9375 46.9062 12.6875C46.4271 12.4375 45.9167 12.2708 45.375 12.1875C44.3333 11.9375 42.5417 11.75 40 11.625C37.5 11.5 34.8333 11.4375 32 11.4375C29.1667 11.4375 26.5 11.5 24 11.625C21.4583 11.75 19.6667 11.9375 18.625 12.1875ZM13.5625 16.875L9.75 25.125H54.25L50.4375 16.875C50.0625 16.6667 49.6771 16.4896 49.2812 16.3438C48.8854 16.1979 48.4583 16.0833 48 16C46.7083 15.75 44.5625 15.5625 41.5625 15.4375C38.5208 15.3125 35.3333 15.25 32 15.25C28.6667 15.25 25.4792 15.3125 22.4375 15.4375C19.4375 15.5625 17.2917 15.75 16 16C15.5417 16.0833 15.1146 16.1979 14.7188 16.3438C14.3229 16.4896 13.9375 16.6667 13.5625 16.875ZM2.4375 23C2.4375 23.2083 2.51042 23.3854 2.65625 23.5312C2.80208 23.6771 2.95833 23.7708 3.125 23.8125L6.3125 24.1875V23C6.3125 22.7917 6.22917 22.6146 6.0625 22.4688C5.89583 22.3229 5.70833 22.25 5.5 22.25H3.25C3.04167 22.25 2.85417 22.3229 2.6875 22.4688C2.52083 22.6146 2.4375 22.7917 2.4375 23ZM8.625 27.5625L4.75 31.5C4.375 31.8333 4.07292 32.2396 3.84375 32.7188C3.61458 33.1979 3.47917 33.6875 3.4375 34.1875H60.5625C60.5208 33.6875 60.3854 33.1979 60.1562 32.7188C59.9271 32.2396 59.625 31.8333 59.25 31.5L55.375 27.5625H8.625ZM15.875 51.3125V49.6875H9.6875C9.27083 49.6875 8.85417 49.6562 8.4375 49.5938C8.02083 49.5312 7.625 49.4375 7.25 49.3125V51.3125C7.25 51.6875 7.375 51.9896 7.625 52.2188C7.875 52.4479 8.16667 52.5625 8.5 52.5625H14.625C14.9583 52.5625 15.25 52.4479 15.5 52.2188C15.75 51.9896 15.875 51.6875 15.875 51.3125ZM56.75 51.3125V49.3125C56.375 49.4375 55.9792 49.5312 55.5625 49.5938C55.1458 49.6562 54.7292 49.6875 54.3125 49.6875H48.125V51.3125C48.125 51.6875 48.25 51.9896 48.5 52.2188C48.75 52.4479 49.0417 52.5625 49.375 52.5625H55.5C55.8333 52.5625 56.125 52.4479 56.375 52.2188C56.625 51.9896 56.75 51.6875 56.75 51.3125Z" fill="white"/>
</g>
<defs>
<clipPath id="clip0_3519_352">
<rect width="64" height="64" fill="white"/>
</clipPath>
</defs>
</svg>
