<svg width="32" height="32" viewBox="0 0 32 32" fill="none" xmlns="http://www.w3.org/2000/svg">
<path d="M18.7342 8.00033C20.0365 8.25441 21.2334 8.89133 22.1716 9.82957C23.1098 10.7678 23.7468 11.9647 24.0009 13.267M18.7342 2.66699C21.4399 2.96757 23.963 4.17923 25.8892 6.103C27.8154 8.02678 29.0302 10.5483 29.3342 13.2537M13.6368 18.4844C12.0347 16.8823 10.7697 15.0708 9.84167 13.138C9.76185 12.9717 9.72194 12.8886 9.69127 12.7834C9.58231 12.4096 9.66058 11.9506 9.88726 11.634C9.95105 11.5449 10.0273 11.4687 10.1797 11.3163C10.6458 10.8502 10.8789 10.6171 11.0313 10.3827C11.6059 9.49886 11.6059 8.35942 11.0313 7.47557C10.8789 7.2412 10.6458 7.00813 10.1797 6.54198L9.91985 6.28216C9.21126 5.57357 8.85696 5.21927 8.47645 5.02681C7.71971 4.64405 6.82602 4.64405 6.06927 5.02681C5.68876 5.21927 5.33447 5.57357 4.62588 6.28216L4.4157 6.49234C3.70953 7.1985 3.35645 7.55158 3.08679 8.03163C2.78756 8.5643 2.57241 9.39162 2.57423 10.0026C2.57587 10.5532 2.68267 10.9295 2.89628 11.6821C4.04424 15.7266 6.21021 19.5431 9.39418 22.7271C12.5782 25.911 16.3946 28.077 20.4392 29.225C21.1918 29.4386 21.5681 29.5454 22.1187 29.547C22.7296 29.5488 23.5569 29.3337 24.0896 29.0345C24.5697 28.7648 24.9227 28.4117 25.6289 27.7055L25.8391 27.4954C26.5477 26.7868 26.902 26.4325 27.0944 26.052C27.4772 25.2952 27.4772 24.4015 27.0944 23.6448C26.902 23.2643 26.5477 22.91 25.8391 22.2014L25.5793 21.9416C25.1131 21.4754 24.88 21.2424 24.6457 21.09C23.7618 20.5153 22.6224 20.5153 21.7385 21.09C21.5042 21.2424 21.2711 21.4754 20.8049 21.9416C20.6525 22.094 20.5763 22.1702 20.4872 22.234C20.1707 22.4607 19.7116 22.5389 19.3378 22.43C19.2327 22.3993 19.1495 22.3594 18.9833 22.2796C17.0505 21.3516 15.2389 20.0865 13.6368 18.4844Z" stroke="#2DCDFF" stroke-width="2" stroke-linecap="round" stroke-linejoin="round"/>
</svg>
